<?xml version="1.0" standalone="no"?>
<!DOCTYPE svg PUBLIC "-//W3C//DTD SVG 20010904//EN"
 "http://www.w3.org/TR/2001/REC-SVG-20010904/DTD/svg10.dtd">
<svg version="1.0" xmlns="http://www.w3.org/2000/svg"
 width="1080.000000pt" height="1073.000000pt" viewBox="0 0 1080.000000 1073.000000"
 preserveAspectRatio="xMidYMid meet">
<metadata>
Created by potrace 1.16, written by Peter Selinger 2001-2019
</metadata>
<g transform="translate(0.000000,1073.000000) scale(0.100000,-0.100000)"
fill="#000000" stroke="none">
<path d="M5281 10442 l-74 -232 -233 -2 -233 -3 88 -65 c49 -36 132 -96 185
-135 53 -38 96 -74 96 -79 0 -5 -27 -93 -60 -195 -34 -101 -58 -191 -55 -198
2 -8 1 -12 -4 -9 -7 5 -25 -34 -18 -40 1 -1 27 16 58 39 86 64 215 158 272
198 l52 37 65 -46 c36 -25 121 -88 189 -139 69 -51 126 -91 128 -89 2 2 -28
99 -67 217 -38 117 -70 219 -70 225 0 11 107 92 303 229 l72 50 -236 3 -236 2
-18 60 c-10 33 -22 60 -27 60 -5 0 -7 4 -4 8 3 5 -18 82 -47 172 l-52 163 -74
-231z"/>
<path d="M2984 9394 c-90 -77 -107 -97 -146 -174 -30 -59 -33 -73 -33 -150 1
-73 5 -95 32 -155 35 -78 55 -90 123 -73 34 9 45 19 74 67 94 155 112 362 42
499 l-22 44 -70 -58z"/>
<path d="M7723 9406 c-68 -140 -51 -343 43 -497 27 -45 41 -58 71 -67 68 -19
87 -9 124 71 30 64 34 82 34 157 0 77 -3 91 -33 150 -18 36 -43 76 -55 90 -23
25 -133 122 -153 133 -6 3 -20 -13 -31 -37z"/>
<path d="M3428 9234 c-73 -17 -128 -45 -177 -90 -31 -27 -43 -48 -57 -100 -15
-56 -25 -72 -68 -111 -28 -25 -50 -50 -49 -54 2 -5 -3 -6 -10 -4 -19 8 -59
-23 -184 -146 -139 -135 -222 -209 -234 -209 -4 0 2 28 15 63 52 136 58 300
17 406 -23 56 -67 121 -83 121 -16 0 -78 -74 -73 -87 2 -7 -1 -12 -7 -10 -15
3 -62 -81 -88 -157 -25 -73 -27 -190 -4 -244 19 -46 68 -98 115 -122 67 -35
68 -43 2 -108 -32 -32 -91 -96 -132 -142 l-74 -83 8 59 c14 107 7 234 -15 307
-12 37 -25 65 -29 62 -5 -2 -8 3 -7 13 0 9 -5 16 -12 14 -8 -1 -11 2 -7 8 7
12 -60 100 -76 100 -17 0 -87 -119 -111 -188 -18 -53 -23 -89 -23 -172 0 -95
3 -111 28 -162 32 -65 78 -99 147 -107 41 -5 45 -9 45 -33 1 -15 -3 -26 -8
-25 -4 1 -30 -37 -57 -85 -27 -49 -46 -88 -42 -88 4 0 2 -4 -4 -8 -6 -4 -27
-32 -47 -63 -53 -84 -57 -83 -57 20 0 118 -22 218 -66 302 -32 61 -116 159
-136 159 -12 0 -55 -70 -74 -120 -26 -67 -26 -278 0 -342 10 -26 22 -45 27
-42 5 3 6 -1 4 -8 -6 -16 58 -79 95 -95 27 -11 71 -10 108 1 12 4 22 3 22 -1
0 -5 -39 -99 -86 -209 -70 -162 -90 -221 -109 -319 -14 -66 -40 -181 -60 -255
-48 -186 -62 -255 -80 -405 -28 -243 -14 -704 30 -950 21 -118 33 -164 105
-389 33 -104 68 -222 77 -262 9 -41 21 -70 26 -67 6 3 7 1 3 -5 -7 -11 168
-372 186 -383 5 -3 9 -9 9 -13 -2 -8 29 -69 38 -76 10 -8 54 -68 127 -175 80
-117 159 -215 304 -378 58 -66 114 -133 125 -150 19 -31 19 -31 0 -22 -103 44
-252 71 -333 60 -80 -11 -102 -16 -97 -25 3 -4 -3 -6 -12 -4 -23 6 -127 -56
-131 -77 -5 -27 164 -150 213 -155 6 0 24 -7 40 -15 31 -14 201 -19 240 -7 11
4 23 7 27 7 22 3 83 72 109 123 l30 60 52 -54 c53 -55 101 -95 181 -152 25
-17 65 -50 89 -73 25 -23 46 -40 49 -38 2 2 48 -27 103 -65 55 -38 144 -96
198 -130 53 -34 97 -63 97 -65 0 -2 -21 3 -46 11 -197 59 -440 -19 -542 -174
-20 -31 -16 -33 125 -72 97 -27 125 -31 200 -27 110 5 138 12 187 45 63 43
106 116 106 178 0 24 14 32 24 15 9 -14 156 -87 211 -104 89 -28 156 -36 370
-47 116 -5 253 -15 305 -21 178 -20 395 -50 481 -66 l86 -15 7 -54 c9 -74 39
-135 91 -183 62 -57 106 -74 195 -74 89 0 133 17 195 74 52 48 82 109 91 184
4 30 10 55 13 55 3 0 58 9 121 20 117 20 289 43 415 55 39 4 84 9 100 11 17 2
113 8 215 14 185 9 323 24 343 37 6 4 22 8 34 9 28 3 209 89 218 104 13 21 23
9 29 -38 8 -59 43 -112 100 -151 58 -40 82 -45 206 -45 86 0 123 5 205 28 55
16 104 33 109 37 23 20 -84 128 -168 169 -120 59 -259 72 -380 36 -25 -8 -46
-13 -46 -11 0 2 44 31 98 65 53 33 124 81 157 105 54 40 132 87 145 88 3 1 22
17 43 36 21 19 61 52 90 74 101 75 132 102 184 156 l51 53 31 -59 c26 -52 87
-121 109 -124 4 0 16 -3 27 -7 39 -12 209 -7 240 7 17 8 35 15 40 16 38 5 137
69 199 127 29 26 14 46 -65 86 -75 38 -177 56 -259 47 -77 -9 -178 -33 -212
-51 -50 -26 -34 7 50 101 153 174 273 322 340 418 70 103 129 183 149 204 25
27 233 455 227 466 -4 7 -3 9 1 5 5 -5 18 31 31 80 12 48 50 173 83 277 33
105 64 208 70 230 78 304 94 927 32 1252 -11 55 -59 250 -91 368 -10 39 -24
104 -30 145 -9 54 -37 134 -101 285 -90 213 -102 248 -75 226 20 -17 87 -20
122 -5 52 22 101 86 125 165 18 61 21 87 16 173 -3 55 -13 121 -22 146 -18 51
-61 120 -74 120 -5 0 -31 -23 -59 -51 -93 -94 -142 -235 -142 -410 0 -103 -4
-104 -57 -20 -20 31 -41 59 -47 63 -6 4 -8 8 -4 8 3 0 -5 21 -19 48 -47 88
-75 132 -81 128 -4 -2 -8 6 -8 19 -2 20 4 25 40 31 128 21 196 132 183 303 -3
42 -15 106 -26 142 -21 67 -92 189 -111 189 -16 0 -101 -114 -95 -128 3 -7 1
-10 -5 -7 -5 3 -18 -25 -30 -61 -22 -72 -28 -199 -15 -309 l7 -60 -56 61 c-30
34 -74 84 -96 112 -21 28 -55 63 -75 79 -19 15 -35 33 -35 39 0 6 21 22 48 37
59 32 106 81 126 129 26 60 21 173 -10 260 -30 83 -70 151 -84 143 -5 -3 -8 0
-5 7 5 14 -57 88 -74 88 -10 0 -47 -48 -69 -90 -23 -42 -42 -131 -42 -191 0
-74 25 -205 45 -235 9 -13 13 -24 10 -24 -2 0 0 -11 5 -25 5 -14 6 -25 1 -25
-13 0 -98 77 -233 208 -124 122 -165 155 -185 147 -7 -2 -12 -1 -10 4 1 4 -21
29 -49 54 -43 39 -53 55 -68 111 -14 52 -26 73 -57 100 -83 76 -185 106 -359
106 -63 0 -121 -4 -128 -9 -28 -18 31 -129 107 -199 107 -99 196 -134 340
-136 105 -1 107 -1 161 -38 107 -72 226 -173 340 -287 63 -64 119 -115 123
-113 5 1 6 -1 3 -6 -3 -4 5 -20 17 -34 12 -14 45 -51 72 -82 28 -32 54 -64 58
-72 5 -8 14 -11 20 -8 7 4 9 4 5 0 -7 -8 66 -124 87 -138 5 -4 6 -8 1 -8 -5 0
8 -17 29 -39 21 -21 50 -57 65 -79 15 -23 30 -39 32 -37 3 3 5 -1 5 -7 0 -7
13 -36 30 -63 108 -182 243 -486 327 -737 138 -410 218 -1136 151 -1368 -8
-30 -17 -95 -20 -145 -12 -253 -154 -729 -306 -1025 -30 -58 -53 -111 -52
-117 0 -7 -3 -11 -7 -8 -11 7 -60 -60 -86 -115 -26 -57 -116 -202 -155 -252
-17 -21 -27 -43 -23 -49 4 -7 3 -9 -3 -6 -11 7 -77 -59 -113 -113 -30 -44
-156 -197 -170 -205 -6 -4 -7 -11 -4 -17 4 -6 2 -8 -3 -5 -6 4 -26 -10 -45
-31 -98 -107 -390 -343 -406 -327 -3 2 8 35 24 72 50 121 33 282 -41 399 -18
28 -38 55 -45 59 -19 12 -47 -23 -89 -109 -90 -185 -96 -390 -13 -438 28 -16
90 -15 123 3 26 14 24 -3 -3 -28 -93 -84 -383 -254 -559 -326 -91 -38 -229
-80 -238 -72 -2 3 5 15 16 28 38 42 83 135 94 193 10 56 0 206 -19 277 l-7 26
-44 -22 c-59 -30 -151 -132 -190 -211 -46 -94 -57 -218 -26 -297 6 -15 -22
-17 -282 -22 -277 -5 -391 -15 -600 -51 l-93 -17 -34 39 c-19 21 -59 51 -88
67 -45 25 -64 29 -128 29 -64 0 -83 -4 -129 -29 -29 -16 -68 -47 -86 -68 l-33
-38 -93 16 c-211 37 -324 47 -602 52 -260 5 -288 7 -282 22 32 81 20 203 -28
298 -19 38 -40 67 -46 66 -5 -2 -8 3 -5 10 9 24 -166 171 -183 153 -11 -11
-33 -230 -27 -280 6 -60 56 -169 97 -213 11 -13 18 -25 15 -28 -9 -9 -175 44
-279 90 -56 24 -106 42 -112 38 -6 -3 -7 -2 -4 4 3 5 -37 34 -91 63 -53 29
-120 69 -149 87 -29 19 -57 32 -62 29 -5 -4 -13 -1 -17 5 -4 8 -3 9 4 5 31
-19 6 5 -48 47 -57 45 -83 80 -42 58 25 -14 102 -21 102 -10 0 5 3 8 8 8 41
-7 71 58 72 155 0 121 -57 292 -125 371 l-25 30 -28 -32 c-43 -50 -71 -113
-88 -200 -18 -93 -13 -151 23 -240 14 -35 24 -66 22 -68 -7 -6 -101 57 -178
120 -40 33 -87 71 -104 85 -17 14 -60 55 -95 92 -36 37 -70 64 -75 61 -6 -3
-7 -1 -3 5 3 6 2 13 -4 17 -14 8 -140 161 -170 205 -31 47 -102 120 -110 115
-4 -2 -7 1 -7 8 0 16 -110 176 -117 171 -3 -2 -4 -1 -2 2 6 8 -79 169 -111
210 -14 19 -30 31 -36 27 -5 -3 -7 -1 -4 4 4 6 -22 66 -57 134 -145 284 -289
769 -301 1014 -3 50 -12 115 -20 145 -36 125 -30 427 16 759 54 389 127 641
301 1031 100 226 248 472 310 518 10 7 16 17 13 22 -3 4 -2 10 3 12 15 6 91
126 84 134 -4 4 -2 4 5 0 6 -3 15 0 20 8 8 14 77 97 125 150 15 16 25 33 22
38 -3 5 -2 7 3 6 4 -1 62 51 128 117 124 124 298 266 373 305 35 19 54 21 110
17 114 -8 212 23 307 97 52 40 54 42 102 103 50 64 72 121 52 134 -22 14 -248
9 -311 -7z m2090 -6340 c144 -85 160 -277 31 -387 -113 -97 -290 -59 -361 77
-16 30 -22 59 -23 107 0 56 4 73 30 114 34 55 95 103 146 115 52 13 129 2 177
-26z"/>
<path d="M5180 8979 c-488 -37 -939 -190 -1350 -457 -116 -76 -176 -122 -172
-134 1 -5 -2 -7 -8 -3 -10 6 -94 -60 -180 -141 -25 -23 -58 -54 -73 -68 -16
-15 -25 -31 -21 -38 4 -7 3 -8 -4 -4 -11 6 -115 -95 -163 -159 -12 -16 -36
-44 -52 -62 -18 -19 -26 -36 -22 -44 5 -8 4 -10 -3 -5 -14 8 -113 -124 -107
-142 3 -7 1 -11 -4 -7 -20 12 -200 -308 -275 -487 -85 -207 -144 -411 -181
-632 -104 -616 -3 -1256 287 -1806 75 -143 140 -250 148 -245 4 2 7 -1 7 -8 0
-21 35 -67 46 -60 6 3 7 1 3 -5 -8 -13 56 -98 180 -243 185 -213 426 -415 685
-572 73 -44 312 -167 325 -167 3 0 33 -13 67 -28 34 -16 80 -34 102 -41 22 -7
49 -16 60 -20 27 -11 126 -41 150 -46 11 -2 36 -9 55 -15 42 -12 329 -68 350
-68 8 0 51 -4 94 -10 110 -15 454 -15 551 -1 44 7 89 11 99 11 25 -1 312 55
351 69 17 6 44 13 60 16 17 3 37 9 46 14 9 4 34 13 55 18 51 12 139 44 208 76
30 14 57 25 61 25 13 0 247 120 321 165 285 172 564 414 747 645 37 47 81 102
98 123 17 20 27 42 23 49 -4 6 -3 8 3 5 13 -8 117 148 108 164 -5 7 -4 10 3 5
6 -4 36 42 77 119 303 570 406 1204 299 1834 -13 80 -24 149 -24 153 0 5 -4 6
-10 3 -5 -3 -7 0 -4 8 14 37 -103 384 -200 591 -61 129 -166 307 -177 300 -5
-3 -7 1 -4 8 6 17 -128 204 -144 200 -7 -1 -10 2 -6 8 7 12 -65 97 -78 92 -5
-1 -6 2 -2 8 17 28 -408 431 -437 414 -6 -4 -8 -3 -5 3 11 18 -212 169 -393
265 -481 256 -1021 369 -1570 327z m590 -63 c139 -20 283 -49 376 -76 38 -11
76 -22 84 -24 41 -11 176 -59 185 -66 6 -4 21 -11 35 -15 45 -14 214 -92 290
-136 41 -23 89 -50 106 -59 40 -21 211 -136 247 -167 16 -13 34 -20 40 -16 7
3 9 3 5 -2 -4 -4 18 -28 50 -54 82 -66 294 -275 359 -353 31 -37 61 -64 66
-61 6 3 7 1 3 -5 -8 -14 73 -123 87 -115 6 3 7 1 3 -5 -8 -13 62 -118 76 -114
5 1 7 -2 3 -8 -4 -6 11 -39 33 -73 92 -141 211 -405 277 -614 151 -479 165
-1050 38 -1528 -14 -55 -27 -110 -27 -122 -1 -11 -4 -20 -7 -18 -3 2 -11 -16
-17 -41 -13 -50 -76 -209 -116 -297 -15 -32 -24 -63 -20 -70 4 -6 3 -9 -1 -4
-11 9 -77 -112 -68 -126 3 -6 1 -7 -5 -3 -7 4 -12 3 -12 -2 0 -5 -34 -63 -76
-128 -42 -66 -77 -124 -77 -131 0 -7 -5 -9 -10 -6 -6 4 -8 -1 -4 -11 4 -9 3
-15 -1 -12 -5 3 -40 -34 -78 -82 -38 -48 -107 -127 -154 -176 -47 -49 -84 -94
-82 -100 2 -6 0 -8 -4 -4 -4 4 -41 -25 -83 -64 -42 -39 -109 -96 -148 -126
-40 -30 -70 -59 -66 -65 3 -5 1 -7 -5 -3 -6 3 -59 -26 -119 -67 -60 -40 -133
-85 -163 -101 -30 -16 -86 -45 -125 -66 -102 -55 -277 -124 -439 -174 -463
-144 -958 -164 -1446 -57 -204 45 -519 159 -675 245 -33 18 -81 45 -107 59
-25 14 -65 37 -87 52 -23 14 -47 23 -53 19 -6 -4 -8 -3 -5 3 8 13 -50 56 -65
47 -6 -4 -8 -3 -5 3 9 14 -40 46 -55 37 -6 -4 -8 -3 -5 3 3 5 -40 46 -96 91
-56 44 -160 139 -231 211 -71 72 -133 128 -139 124 -6 -3 -7 -1 -3 5 8 14
-134 193 -147 185 -6 -3 -7 -1 -3 5 3 6 -28 62 -69 126 -41 63 -80 126 -86
140 -7 14 -16 23 -22 19 -6 -3 -7 -2 -4 4 9 14 -57 135 -68 126 -4 -5 -5 -2
-1 4 4 7 -9 46 -28 88 -41 88 -116 288 -116 311 0 8 -3 13 -7 11 -5 -3 -8 5
-9 16 0 12 -12 66 -27 119 -147 550 -106 1192 113 1743 87 219 247 499 378
662 19 23 31 47 27 53 -4 6 -2 9 3 8 5 -2 43 35 84 82 78 89 228 238 288 286
19 16 41 35 49 42 8 7 24 20 37 29 13 8 21 20 17 26 -3 5 -1 7 5 3 5 -3 23 5
39 18 36 30 224 156 233 156 4 0 19 9 34 21 36 29 281 149 394 194 223 88 460
145 762 184 109 14 512 6 640 -13z"/>
<path d="M5392 8774 c-15 -25 -42 -64 -59 -87 -18 -23 -55 -74 -82 -113 -33
-47 -60 -75 -79 -82 -43 -15 -65 -43 -117 -150 -57 -117 -95 -174 -136 -202
l-30 -22 -25 23 -25 23 -35 -37 c-19 -20 -37 -37 -39 -37 -1 0 -18 24 -36 53
-34 54 -78 107 -89 107 -4 0 -10 -22 -13 -50 -12 -96 -109 -343 -156 -395 -10
-11 -24 -30 -30 -43 -10 -18 -15 -21 -26 -12 -10 8 -16 2 -29 -32 l-16 -43 6
45 c11 79 53 228 85 298 16 37 50 87 74 112 40 41 80 111 55 95 -6 -3 -10 -12
-10 -19 0 -8 -6 -18 -13 -24 -10 -9 -24 0 -59 36 -58 60 -160 187 -222 277
-66 94 -66 94 -48 33 10 -36 15 -101 16 -203 l0 -150 -58 -125 c-31 -68 -71
-171 -88 -229 -16 -57 -49 -150 -74 -207 -24 -56 -60 -158 -79 -226 -21 -70
-51 -147 -71 -180 -19 -31 -37 -70 -40 -87 -5 -25 -9 -29 -20 -20 -21 17 -41
4 -49 -31 -4 -18 -17 -42 -29 -53 -11 -12 -26 -35 -33 -52 -24 -63 -13 16 26
188 35 152 53 234 75 342 5 25 4 24 -8 -7 -8 -20 -24 -85 -36 -145 -36 -178
-68 -309 -106 -426 -32 -100 -41 -117 -83 -157 -26 -25 -58 -61 -71 -80 -13
-19 -40 -52 -61 -72 -28 -28 -39 -49 -45 -83 -3 -25 -4 -48 -1 -51 3 -3 37 2
76 12 65 17 72 21 82 51 8 26 23 38 73 63 56 26 67 36 92 85 16 30 34 53 39
52 19 -6 17 -49 -3 -70 -11 -12 -26 -34 -33 -49 -8 -15 -46 -62 -85 -105 -38
-43 -84 -99 -102 -124 -17 -26 -47 -56 -66 -67 -32 -19 -126 -127 -126 -145 0
-17 51 21 79 60 19 26 40 43 59 48 16 3 40 18 53 32 36 38 105 83 129 83 13 0
24 10 31 27 6 15 16 34 22 42 10 12 13 9 17 -15 5 -27 7 -26 61 46 30 41 122
174 203 295 82 121 161 234 177 250 l29 30 32 -18 c17 -10 34 -14 38 -10 4 4
18 40 30 78 40 124 113 266 189 365 41 55 98 147 133 218 33 67 63 122 66 122
3 0 2 -39 -1 -87 -5 -78 -18 -139 -42 -195 -11 -28 12 -21 32 8 22 34 48 154
72 326 19 139 43 210 73 216 65 13 31 -355 -48 -524 -13 -28 -69 -104 -125
-169 -55 -65 -112 -139 -127 -164 -15 -25 -55 -84 -89 -130 -35 -46 -68 -99
-75 -118 -7 -18 -18 -33 -25 -33 -8 0 -18 -11 -23 -25 -6 -16 -14 -23 -25 -19
-9 4 -23 -4 -36 -20 -11 -14 -27 -26 -36 -26 -8 0 -22 -18 -31 -41 l-16 -42
-11 34 -12 34 -17 -60 c-29 -103 -47 -144 -66 -150 -10 -3 -24 -20 -31 -37 -7
-17 -29 -50 -49 -73 -20 -23 -58 -83 -83 -133 -36 -69 -59 -100 -99 -134 -64
-52 -74 -64 -93 -107 -19 -42 -19 -41 5 -41 11 0 26 11 35 24 8 13 34 31 56
41 30 14 61 45 118 120 43 56 88 119 99 141 28 54 73 94 174 153 71 42 88 56
93 81 4 20 13 30 25 30 19 0 30 19 30 50 0 12 6 17 18 13 13 -3 27 14 59 76
23 45 58 95 78 113 59 51 202 283 192 311 -2 7 -26 -19 -53 -57 -81 -114 -128
-169 -146 -172 -70 -10 72 237 218 382 109 109 155 192 204 374 83 305 105
380 131 438 34 75 67 124 80 117 16 -10 10 -120 -11 -207 -11 -46 -25 -123
-31 -173 -13 -110 -58 -246 -155 -467 -74 -170 -107 -267 -119 -348 -8 -62 -1
-48 24 45 23 84 91 237 110 249 22 14 14 -46 -44 -313 -9 -40 -14 -76 -11 -78
9 -9 55 161 71 262 38 242 50 296 82 389 40 114 97 243 187 423 72 144 95 201
160 391 24 73 52 145 61 159 15 22 19 24 32 11 25 -25 31 -121 17 -280 -12
-136 -8 -227 9 -245 11 -10 20 48 14 90 -7 49 6 159 23 202 15 40 23 26 50
-103 25 -123 42 -173 71 -213 42 -59 67 -191 89 -469 22 -270 38 -375 75 -481
9 -24 34 -120 57 -214 23 -93 43 -164 46 -156 8 25 -20 166 -59 291 -45 144
-61 250 -37 250 18 0 40 -24 61 -65 25 -50 86 -234 103 -309 17 -74 39 -118
28 -56 -29 165 -93 348 -153 435 -83 119 -95 164 -116 415 -19 244 -29 290
-77 387 -22 46 -43 102 -45 125 -6 53 9 113 27 113 23 0 68 -101 95 -210 13
-55 35 -180 49 -277 47 -327 75 -431 133 -487 45 -44 79 -118 133 -291 44
-141 145 -370 164 -370 6 -1 28 -28 50 -60 38 -60 49 -69 61 -50 3 6 10 10 15
10 13 0 55 -84 69 -136 12 -44 48 -87 93 -110 l27 -14 6 48 c11 82 16 102 27
102 19 0 86 -78 99 -114 12 -33 15 -35 48 -30 32 5 38 2 53 -25 12 -22 28 -33
60 -41 52 -13 57 -15 86 -36 37 -27 25 -7 -32 55 -35 38 -59 75 -66 101 -9 33
-18 45 -41 53 -23 9 -33 22 -43 57 -7 25 -35 81 -61 125 -26 44 -62 109 -81
145 -49 96 -49 96 -69 80 -21 -18 -31 -6 -47 60 -11 42 -19 56 -34 58 -15 2
-32 28 -64 98 -52 115 -71 135 -26 27 54 -128 54 -122 1 -112 -60 11 -59 10
-97 74 -17 29 -43 59 -56 66 -13 8 -35 34 -49 59 -15 25 -43 63 -64 85 -57 60
-165 229 -184 286 -22 65 -21 200 1 280 9 33 20 61 24 64 14 9 50 -74 80 -185
32 -119 126 -325 163 -357 19 -18 19 -18 0 22 -24 47 -49 124 -58 178 -11 67
20 43 107 -84 80 -116 84 -120 116 -117 27 2 36 -2 53 -31 11 -18 41 -61 67
-95 52 -67 100 -159 161 -302 21 -51 59 -128 85 -172 l46 -79 71 -5 c87 -7
108 -21 171 -115 64 -97 117 -137 306 -232 131 -65 167 -80 178 -70 8 6 27 9
44 5 28 -5 30 -3 30 22 -1 47 -42 114 -92 150 l-47 33 -23 -35 c-13 -20 -30
-36 -39 -36 -26 0 -56 36 -68 84 -8 33 -19 50 -35 57 -18 9 -25 22 -30 59 -12
91 -92 361 -113 379 -3 3 -3 -3 1 -14 12 -33 46 -169 46 -185 -1 -11 -4 -10
-12 4 -10 18 -11 18 -24 -5 l-13 -24 -1 24 c0 22 -1 23 -24 7 l-25 -16 6 35
c7 44 -11 69 -44 60 -20 -5 -26 0 -35 27 -22 64 -88 184 -138 253 -28 39 -59
93 -69 121 -23 60 -55 274 -72 469 -21 253 2 585 40 585 9 0 46 -93 62 -156 6
-22 14 -138 18 -259 7 -175 13 -234 29 -290 11 -38 25 -97 31 -130 11 -61 64
-180 101 -225 17 -21 17 -16 -6 35 -14 33 -35 87 -46 120 -30 95 -37 265 -10
265 4 0 18 -34 31 -75 35 -111 63 -164 114 -221 26 -29 62 -79 81 -112 19 -33
60 -95 92 -137 33 -42 77 -105 99 -139 22 -35 57 -83 79 -107 21 -24 54 -78
74 -119 20 -41 48 -87 64 -102 15 -14 29 -38 30 -52 2 -24 6 -26 46 -26 42 0
48 -4 134 -91 49 -50 92 -89 94 -86 3 3 -5 33 -17 68 -27 81 -39 239 -17 239
19 0 71 -56 93 -100 10 -19 27 -46 38 -60 l19 -25 -7 25 c-25 93 -211 412
-283 488 -20 21 -32 31 -25 22 17 -22 100 -275 109 -329 5 -32 3 -45 -7 -52
-16 -10 -27 11 -28 54 -1 24 -3 26 -21 17 -17 -9 -20 -7 -26 15 -3 14 -9 25
-13 25 -16 0 -128 104 -148 138 -13 20 -28 61 -35 90 -8 37 -15 51 -25 48 -7
-3 -33 9 -57 27 -42 30 -47 40 -83 145 -21 61 -41 111 -44 110 -3 -2 -20 9
-38 25 -18 15 -36 27 -41 27 -4 0 -29 43 -54 95 -25 52 -60 110 -76 128 -35
40 -45 66 -59 144 -21 124 -22 133 -6 127 19 -8 83 -94 136 -183 39 -67 44
-72 50 -50 5 23 7 22 22 -14 9 -22 26 -67 36 -102 11 -35 33 -89 49 -122 16
-32 43 -94 58 -138 28 -76 29 -78 32 -43 2 25 -11 72 -41 150 -30 76 -41 115
-34 120 8 5 5 15 -9 30 -12 13 -41 61 -65 107 -42 79 -68 111 -274 334 -24 26
-47 57 -50 70 -4 12 -22 45 -39 72 -18 28 -45 79 -60 115 -16 36 -37 74 -47
84 -16 17 -21 18 -43 6 -14 -7 -42 -38 -62 -69 -94 -144 -129 -168 -190 -131
-18 12 -41 20 -51 18 -9 -2 -37 -30 -63 -63 -25 -33 -73 -80 -106 -105 -33
-24 -80 -68 -104 -98 -25 -30 -57 -60 -72 -68 -26 -14 -26 -13 -73 61 -25 41
-51 75 -56 75 -6 0 -23 -7 -39 -15 -36 -19 -33 -25 -95 160 -60 177 -106 271
-167 339 -26 30 -60 78 -74 108 -61 121 -119 188 -165 188 -5 0 -22 -21 -37
-46z m-81 -283 c-6 -38 -20 -97 -31 -132 -21 -67 -74 -169 -89 -169 -11 0 14
152 41 255 11 44 35 107 52 140 l31 60 3 -43 c2 -24 -1 -74 -7 -111z m-940
-138 c19 -40 24 -68 27 -168 3 -101 0 -140 -23 -250 -43 -208 -73 -317 -94
-339 -11 -12 -30 -61 -43 -111 -20 -79 -23 -85 -26 -52 -4 42 -14 47 -31 15
-9 -18 -10 12 -6 142 9 255 19 325 70 464 24 67 49 156 55 197 15 96 29 149
39 149 5 0 19 -21 32 -47z m2288 -119 c-12 -27 -30 -79 -40 -116 -14 -52 -39
-99 -109 -202 -97 -143 -144 -190 -214 -211 -70 -21 -74 -7 -20 71 123 177
392 520 401 511 2 -2 -6 -26 -18 -53z m-189 -74 c0 -63 -132 -238 -191 -253
-17 -4 -19 -2 -13 16 15 49 69 147 121 221 52 73 57 78 69 61 8 -10 14 -30 14
-45z m220 -285 c13 -210 34 -405 55 -505 16 -75 21 -255 7 -264 -4 -3 -38 24
-75 59 -78 74 -126 164 -153 283 -16 72 -16 91 2 231 l7 53 -26 -17 c-26 -17
-27 -17 -27 2 0 35 22 85 77 178 29 49 60 109 68 132 8 24 23 64 33 91 l17 47
2 -55 c2 -30 7 -136 13 -235z m-2536 -185 c-7 -102 -14 -197 -14 -212 l0 -27
-33 19 -33 19 -22 -82 c-21 -74 -25 -82 -47 -82 -34 0 -33 18 16 171 42 132
138 388 144 382 2 -2 -3 -86 -11 -188z m1960 -381 c15 -11 36 -39 47 -61 11
-22 42 -61 68 -86 54 -53 120 -161 128 -207 3 -21 0 -35 -11 -44 -26 -22 -61
1 -85 55 -12 25 -35 62 -52 82 -17 19 -38 51 -46 71 -8 19 -25 49 -38 65 -20
27 -55 115 -55 138 0 14 16 9 44 -13z m761 -152 c46 -60 62 -108 51 -152 -9
-37 -26 -21 -26 26 0 37 -12 51 -25 29 -10 -17 -22 -11 -29 13 -6 22 -6 22
-31 -8 l-24 -30 0 115 -1 115 21 -25 c11 -14 40 -51 64 -83z"/>
<path d="M4133 8562 c-17 -15 -38 -43 -48 -62 -10 -19 -66 -107 -125 -195
-143 -214 -167 -259 -205 -378 l-31 -102 -44 -5 c-53 -6 -58 -14 -162 -248
-37 -85 -82 -180 -100 -210 -36 -61 -119 -148 -276 -291 -56 -51 -120 -118
-141 -149 -62 -92 -99 -175 -71 -157 5 3 41 50 79 104 72 101 130 161 157 161
9 0 29 8 46 18 29 17 30 17 49 -6 50 -62 41 -160 -21 -222 -9 -9 -20 -24 -22
-31 -4 -12 -7 -12 -22 0 -21 18 -27 12 -37 -45 -11 -56 -14 -61 -33 -45 -12
10 -29 -5 -97 -81 -45 -51 -91 -113 -101 -137 -11 -24 -28 -45 -38 -48 -10 -3
-22 -15 -28 -29 -17 -36 -44 -145 -38 -152 3 -3 27 15 54 39 26 24 62 51 79
60 21 11 32 27 37 50 7 33 7 33 19 12 l12 -23 13 21 c10 15 21 20 37 16 41 -7
118 108 188 282 110 272 198 515 247 687 50 175 84 263 120 314 34 48 40 35
19 -37 -21 -74 -44 -174 -53 -238 -3 -22 11 12 32 75 21 63 46 130 56 149 10
19 44 109 75 200 65 186 106 278 133 292 14 8 19 5 24 -16 9 -35 1 -78 -36
-205 -45 -151 -49 -160 -101 -215 -43 -47 -51 -64 -117 -260 -75 -226 -131
-358 -131 -315 -1 14 4 42 10 63 6 22 9 41 6 43 -2 2 -16 -42 -32 -99 -38
-138 -103 -303 -186 -475 -39 -79 -69 -151 -67 -160 15 -65 357 621 461 922
42 124 105 233 143 250 11 5 27 27 36 50 32 80 120 461 127 551 4 50 13 101
21 115 27 52 112 170 128 180 16 9 16 9 1 10 -9 0 -30 -12 -46 -28z"/>
<path d="M5345 7358 c-8 -18 -24 -49 -35 -68 -14 -24 -18 -44 -14 -67 4 -23
-1 -48 -19 -87 -14 -30 -22 -58 -19 -62 4 -4 1 -3 -7 1 -11 6 -13 4 -8 -9 4
-10 3 -15 -3 -11 -5 3 -19 -14 -31 -37 -32 -61 -33 -184 -3 -224 29 -39 84
-70 95 -52 5 7 6 22 2 33 -4 11 -6 29 -5 40 1 16 -1 17 -8 5 -9 -13 -10 -13
-10 0 0 12 -2 12 -9 2 -7 -11 -10 -10 -15 3 -8 22 -8 40 1 32 3 -4 13 -1 21 6
13 10 15 9 9 -6 -4 -12 -3 -16 4 -11 6 3 9 15 6 25 -3 12 2 23 14 29 10 6 19
15 19 21 0 6 -7 3 -16 -6 -9 -9 -19 -13 -22 -10 -3 3 0 11 6 17 13 13 17 52 4
44 -4 -2 -8 7 -9 22 -2 24 -1 24 7 7 5 -11 9 -15 10 -10 1 6 6 -1 11 -15 6
-18 7 -13 3 20 -4 33 -2 41 5 30 7 -9 11 -10 11 -3 0 6 7 19 16 27 20 21 41
21 24 1 -11 -13 -10 -14 5 -9 14 6 16 3 11 -14 -9 -26 8 -37 24 -16 11 12 15
12 21 2 5 -7 9 -17 9 -23 0 -5 -5 -3 -10 5 -8 13 -10 12 -10 -3 0 -12 -4 -16
-12 -11 -10 6 -10 4 -2 -7 6 -8 14 -21 17 -29 3 -11 8 -9 16 10 l12 25 -6 -25
c-2 -14 -5 -35 -5 -48 0 -13 -4 -20 -10 -17 -6 3 -7 -1 -3 -10 4 -11 8 -13 13
-6 4 7 12 1 20 -14 11 -21 11 -28 2 -34 -7 -4 -10 -15 -6 -24 3 -9 11 -14 16
-11 6 4 8 -2 4 -17 -6 -22 -5 -22 18 6 37 43 41 95 17 198 -12 48 -21 104 -21
125 0 23 -12 56 -30 87 -16 28 -30 56 -30 64 0 27 -42 101 -53 94 -6 -4 -8 -1
-5 8 3 8 -1 20 -8 27 -11 10 -16 7 -29 -20z"/>
<path d="M5388 6597 l-208 -101 0 -278 c0 -255 -4 -301 -25 -269 -3 6 -36 31
-73 57 -106 74 -297 169 -419 208 -140 45 -342 86 -421 86 -83 0 -92 -14 -92
-137 l0 -93 -103 0 c-122 0 -138 -8 -146 -71 l-6 -44 -100 -1 c-89 -2 -101 -4
-117 -24 -17 -21 -18 -70 -15 -927 2 -851 3 -905 20 -917 13 -10 82 -13 280
-14 340 0 615 -24 844 -73 108 -22 321 -83 368 -104 159 -71 217 -95 228 -95
6 0 45 16 84 35 40 19 96 45 125 56 69 28 276 89 300 89 12 0 16 4 12 12 -4 7
-3 8 4 4 6 -4 62 3 124 15 62 12 127 23 143 25 182 21 240 26 368 32 81 5 235
7 341 5 153 -2 196 0 212 11 19 14 19 37 19 925 0 828 -1 912 -16 927 -13 13
-37 16 -118 15 l-101 -1 -1 25 c-1 14 -3 30 -4 35 -1 6 -3 14 -4 19 0 5 -8 17
-17 25 -12 13 -38 16 -120 16 l-104 0 -1 78 c0 42 -5 93 -12 112 -10 30 -18
36 -52 41 -68 11 -187 -10 -375 -67 -236 -71 -356 -131 -567 -280 l-23 -16 0
381 c0 299 -3 381 -12 380 -7 0 -106 -46 -220 -102z m166 -149 c3 -13 6 -145
6 -293 l0 -271 -30 -34 -29 -35 0 305 c-1 168 2 315 5 328 4 12 14 22 24 22
10 0 20 -10 24 -22z m-1402 -1188 c3 -613 5 -701 18 -715 10 -9 49 -19 100
-25 47 -6 103 -12 125 -15 70 -9 242 -55 312 -84 68 -28 177 -84 200 -103 7
-5 18 -6 25 -2 7 4 10 4 6 0 -4 -5 28 -34 70 -66 85 -64 142 -120 124 -120 -7
0 -43 15 -80 34 -225 113 -635 220 -929 242 l-93 7 0 773 0 774 60 0 59 0 3
-700z m2618 -75 l0 -771 -127 -13 c-146 -13 -299 -39 -423 -71 -196 -49 -476
-152 -464 -171 3 -5 -1 -7 -8 -4 -7 3 -31 -4 -52 -15 -22 -11 -41 -18 -43 -16
-14 14 181 169 267 212 30 15 48 30 44 36 -4 6 -3 8 4 5 10 -7 164 54 188 73
6 6 13 8 15 5 3 -2 34 4 70 15 56 17 185 39 327 54 83 9 77 -48 79 735 2 383
3 697 3 699 0 1 27 2 60 1 l60 -2 0 -772z m-710 645 l37 -29 28 29 c16 17 34
30 41 30 16 0 124 -88 124 -101 0 -5 -19 -30 -41 -54 l-42 -45 27 0 c70 0 107
-57 109 -169 l1 -80 26 47 c16 30 33 48 47 50 32 5 41 -23 32 -93 -4 -33 -8
-116 -8 -185 -1 -129 -8 -170 -43 -252 -16 -37 -26 -48 -43 -48 -12 0 -27 6
-32 13 -11 14 -1 412 11 442 5 11 -5 0 -21 -25 -40 -61 -74 -88 -179 -142
-185 -96 -355 -141 -593 -159 -171 -13 -288 -4 -440 33 -45 11 -87 16 -91 11
-4 -4 -25 -48 -45 -96 -45 -104 -57 -113 -180 -129 -90 -12 -115 -5 -115 33 0
10 -5 21 -11 25 -8 5 -10 34 -6 94 l7 87 -43 -41 c-24 -23 -82 -78 -129 -123
-87 -84 -118 -99 -137 -66 -10 19 1 58 26 85 15 16 15 20 0 36 -29 32 -21 78
24 137 23 30 56 64 74 75 60 37 125 19 125 -36 0 -17 6 -24 20 -24 10 0 23 -8
29 -17 6 -12 9 19 8 97 -2 114 -2 116 35 193 37 78 61 95 86 65 16 -21 -2
-403 -23 -461 -9 -27 -14 -51 -11 -54 2 -3 35 15 73 39 73 48 106 95 153 221
23 61 29 65 90 47 224 -66 501 -82 711 -41 118 24 303 79 388 118 l56 25 -32
16 c-52 25 -59 58 -32 144 13 40 25 79 27 86 2 6 -3 12 -11 12 -8 0 -26 9 -41
21 l-26 21 -30 -26 c-26 -22 -34 -23 -60 -14 -41 14 -90 62 -90 88 0 21 77
120 94 120 4 0 25 -13 46 -30z m-2160 -27 c1 -21 2 -361 3 -755 2 -704 2 -717
22 -732 11 -8 40 -15 65 -15 50 1 351 -37 415 -51 22 -5 53 -11 69 -14 35 -6
186 -52 239 -72 21 -8 43 -12 48 -9 5 4 9 2 9 -4 0 -5 13 -12 30 -16 16 -4 32
-11 36 -16 3 -6 -4 -8 -18 -5 -223 48 -550 75 -895 76 l-133 0 0 825 0 825 55
0 55 0 0 -37z m3108 -789 l2 -821 -272 -6 c-302 -7 -440 -18 -631 -48 -70 -11
-133 -19 -139 -17 -6 2 29 19 78 36 165 59 378 104 609 127 230 23 221 21 235
54 9 22 11 199 7 728 -3 384 -3 715 0 736 l5 38 52 -3 51 -3 3 -821z"/>
<path d="M6135 5800 c-35 -36 -39 -37 -82 -4 -38 29 -46 26 -85 -28 -20 -28
-20 -30 -2 -50 11 -11 30 -26 45 -33 24 -13 27 -11 53 21 l27 35 39 -31 c21
-16 42 -30 47 -30 5 0 24 18 42 41 37 45 39 37 -30 89 l-26 19 -28 -29z"/>
<path d="M6211 5617 c-18 -22 -41 -97 -41 -133 0 -37 27 -60 61 -51 10 3 23
-1 30 -9 31 -38 -100 -104 -340 -170 -182 -50 -246 -59 -431 -58 -168 1 -245
11 -404 55 -38 10 -71 18 -72 16 -1 -1 -16 -36 -33 -78 -51 -122 -74 -150
-167 -205 -144 -84 -148 -91 -36 -76 111 16 120 23 168 136 24 54 45 100 47
102 2 2 51 -7 108 -20 153 -37 284 -47 438 -36 225 17 369 54 546 139 191 92
230 141 223 277 -3 60 -7 77 -27 98 -27 29 -53 33 -70 13z"/>
<path d="M4719 5416 l-31 -67 -2 -195 c-2 -165 0 -193 12 -177 29 40 43 125
51 309 4 104 6 191 4 193 -1 2 -17 -26 -34 -63z"/>
<path d="M6383 5423 c-27 -56 -28 -64 -29 -225 -1 -92 -5 -183 -8 -202 -4 -20
-3 -36 2 -36 14 0 40 64 51 126 10 56 24 394 16 394 -2 0 -16 -26 -32 -57z"/>
<path d="M4449 5150 c-65 -68 -77 -109 -39 -132 26 -16 25 -23 -5 -62 -47 -62
-25 -59 43 5 37 35 91 86 120 112 28 26 52 50 52 53 0 3 -20 -7 -45 -22 -31
-18 -53 -24 -70 -20 -64 16 -44 89 23 84 31 -3 37 0 37 17 0 15 -8 21 -29 23
-24 3 -38 -6 -87 -58z"/>
<path d="M3160 8807 c-68 -16 -150 -63 -150 -86 0 -38 58 -110 110 -136 64
-32 109 -40 235 -40 88 0 109 4 168 29 37 15 67 32 67 36 0 4 -20 30 -45 58
-105 117 -250 169 -385 139z"/>
<path d="M7490 8809 c-73 -14 -151 -60 -217 -126 -35 -35 -63 -67 -63 -72 0
-4 29 -20 64 -35 114 -49 301 -45 407 8 49 25 112 107 107 140 -4 25 -76 66
-148 83 -62 14 -85 15 -150 2z"/>
<path d="M7854 8519 c-105 -13 -241 -79 -284 -138 l-21 -31 48 -30 c108 -69
285 -94 388 -56 60 23 114 63 137 104 l18 30 -44 40 c-77 71 -141 93 -242 81z"/>
<path d="M2790 8499 c-25 -11 -64 -39 -87 -61 l-42 -41 17 -30 c75 -128 309
-159 497 -65 22 11 48 27 57 35 16 14 16 18 -9 49 -79 104 -316 166 -433 113z"/>
<path d="M2550 8165 c-19 -7 -60 -26 -90 -42 -52 -28 -56 -32 -70 -87 -17 -66
-19 -63 70 -97 75 -30 238 -36 301 -12 84 32 199 119 185 141 -11 18 -128 81
-182 97 -60 18 -167 18 -214 0z"/>
<path d="M8021 8160 c-30 -11 -83 -37 -118 -57 l-65 -38 44 -39 c23 -21 59
-49 79 -62 107 -67 282 -71 423 -7 38 17 38 18 32 60 -9 66 -18 77 -103 119
-69 34 -88 39 -158 41 -59 2 -94 -3 -134 -17z"/>
<path d="M2378 7799 c-125 -14 -219 -91 -243 -197 -6 -31 -4 -33 84 -61 44
-14 182 -14 218 0 15 6 36 12 47 15 57 11 182 99 206 145 9 16 4 23 -35 48
-69 44 -172 63 -277 50z"/>
<path d="M8291 7798 c-64 -7 -158 -45 -182 -74 -23 -28 131 -153 210 -169 9
-2 27 -7 41 -13 64 -24 243 -8 298 27 30 18 -18 117 -83 173 -54 47 -170 70
-284 56z"/>
<path d="M1570 7737 c-23 -52 -43 -206 -35 -262 10 -64 27 -115 36 -109 5 3 6
-2 3 -10 -8 -21 54 -109 72 -102 8 3 13 2 10 -3 -9 -13 75 -59 121 -67 36 -5
42 -3 67 26 25 31 26 36 20 109 -14 180 -67 307 -162 393 -37 33 -91 68 -107
68 -3 0 -15 -19 -25 -43z"/>
<path d="M9157 7756 c-132 -81 -204 -223 -221 -437 -6 -72 -5 -77 21 -110 28
-35 28 -35 73 -24 54 14 122 53 114 66 -3 5 2 6 10 3 18 -7 80 81 72 102 -3 8
-2 13 3 10 9 -6 26 45 36 109 13 84 -32 306 -62 305 -4 0 -25 -11 -46 -24z"/>
<path d="M2190 7389 c-142 -38 -230 -121 -230 -217 0 -59 18 -66 160 -67 88 0
100 2 162 33 43 22 87 56 125 95 76 80 128 154 93 132 -5 -3 -10 -2 -10 3 0
28 -219 43 -300 21z"/>
<path d="M8350 7388 c-77 -22 -74 -35 39 -148 50 -50 97 -87 136 -106 54 -26
70 -29 155 -29 142 1 160 8 160 67 0 97 -89 180 -235 218 -50 12 -208 12 -255
-2z"/>
<path d="M1373 7244 c-10 -27 5 -247 22 -309 34 -126 120 -219 215 -231 25 -3
51 -7 58 -10 7 -2 23 1 34 7 19 10 20 18 16 112 -4 73 -11 118 -27 160 -50
128 -147 230 -254 266 -51 18 -59 18 -64 5z"/>
<path d="M9322 7222 c-148 -76 -242 -243 -242 -428 0 -99 6 -106 92 -94 168
24 257 181 258 458 l0 92 -27 0 c-16 0 -52 -13 -81 -28z"/>
<path d="M2098 6975 c-165 -42 -275 -164 -253 -281 15 -85 109 -105 205 -44
14 9 37 22 51 29 42 21 160 132 153 143 -4 6 -2 8 3 5 21 -13 105 125 88 142
-18 18 -185 22 -247 6z"/>
<path d="M8502 6983 c-25 -3 -45 -10 -48 -18 -9 -24 62 -129 130 -192 63 -60
114 -100 129 -102 4 0 17 -7 30 -15 65 -43 151 -50 192 -16 21 18 29 86 14
137 -14 53 -87 131 -151 164 -76 39 -174 53 -296 42z"/>
<path d="M1260 6662 c0 -83 29 -222 60 -286 59 -125 152 -186 281 -186 l58 0
6 54 c15 115 -24 208 -129 311 -69 68 -174 131 -248 149 -28 6 -28 6 -28 -42z"/>
<path d="M9499 6700 c-78 -23 -168 -79 -235 -145 -105 -103 -144 -196 -129
-312 l7 -54 71 2 c89 3 135 21 193 78 60 60 100 146 119 255 16 95 20 187 8
185 -5 0 -20 -4 -34 -9z"/>
<path d="M2200 6564 c-169 -25 -256 -55 -316 -110 -48 -44 -81 -115 -89 -190
-9 -81 -5 -85 87 -79 173 12 303 121 368 311 11 31 20 61 20 66 0 8 -22 9 -70
2z"/>
<path d="M8530 6563 c0 -6 8 -34 19 -64 64 -187 188 -297 353 -314 113 -11
122 -1 97 117 -34 161 -146 231 -416 264 -31 3 -53 2 -53 -3z"/>
<path d="M1220 6132 c1 -45 18 -113 52 -201 37 -96 109 -183 181 -222 59 -31
195 -40 221 -13 38 38 2 181 -66 264 -64 79 -199 154 -330 185 l-58 13 0 -26z"/>
<path d="M9503 6140 c-225 -58 -371 -196 -389 -367 -9 -86 4 -97 110 -91 100
6 146 28 218 107 40 43 61 79 86 142 35 90 56 176 50 208 -3 19 -4 19 -75 1z"/>
<path d="M2100 6126 c-74 -21 -121 -44 -167 -82 -47 -38 -106 -130 -98 -152 3
-7 1 -10 -4 -7 -5 3 -15 -21 -21 -52 -6 -32 -14 -68 -17 -80 -11 -47 125 -55
212 -13 108 52 224 246 225 373 0 25 -3 27 -42 26 -24 0 -63 -6 -88 -13z"/>
<path d="M8570 6114 c1 -143 135 -347 254 -387 57 -20 110 -22 155 -6 36 13
36 12 11 111 -27 109 -109 232 -141 212 -8 -4 -10 -3 -5 4 15 25 -120 81 -216
89 l-58 6 0 -29z"/>
<path d="M8536 5677 c10 -84 43 -197 76 -259 36 -67 121 -153 144 -144 8 3 12
1 9 -4 -7 -11 23 -19 80 -23 36 -2 41 1 57 33 27 55 24 145 -8 208 -46 93
-176 187 -312 226 l-53 15 7 -52z"/>
<path d="M2165 5697 c-118 -44 -227 -134 -266 -221 -26 -57 -24 -207 2 -190 5
3 6 -2 3 -10 -7 -19 29 -38 61 -31 14 3 36 7 50 10 14 3 23 10 20 15 -3 6 1 7
9 4 22 -8 118 91 150 154 28 56 61 170 70 245 5 44 4 47 -17 46 -12 0 -49 -10
-82 -22z"/>
<path d="M1250 5598 c0 -17 54 -158 77 -200 42 -79 143 -181 205 -208 62 -27
147 -30 201 -7 34 15 37 19 37 56 0 147 -134 279 -335 329 -82 21 -185 37
-185 30z"/>
<path d="M9475 5593 c-61 -9 -190 -45 -229 -65 -64 -32 -148 -99 -142 -114 3
-8 0 -13 -7 -11 -19 3 -60 -91 -65 -149 -5 -59 1 -66 82 -84 50 -11 114 -1
170 27 42 21 117 94 109 106 -3 5 -1 7 5 3 10 -6 56 53 88 116 14 27 64 164
64 175 0 4 -32 2 -75 -4z"/>
<path d="M2270 5287 c-45 -21 -131 -88 -125 -98 4 -5 1 -8 -7 -7 -7 2 -12 -3
-10 -10 1 -8 -2 -11 -7 -8 -11 7 -63 -65 -91 -127 -23 -51 -26 -146 -6 -186
35 -67 88 -76 155 -27 125 92 181 220 181 414 l0 62 -32 -1 c-18 0 -44 -6 -58
-12z"/>
<path d="M8440 5238 c0 -198 64 -337 194 -422 64 -42 108 -30 145 41 18 34 13
133 -9 180 -28 62 -80 134 -91 127 -5 -3 -8 0 -7 8 2 7 -3 12 -10 10 -8 -1
-11 2 -8 7 6 10 -83 80 -127 99 -15 6 -41 12 -57 12 l-30 0 0 -62z"/>
<path d="M1370 5038 c1 -42 94 -193 112 -182 7 4 8 2 4 -5 -16 -25 141 -142
228 -171 21 -7 64 -12 95 -13 71 0 106 21 123 76 16 52 -5 89 -100 177 -104
98 -197 130 -373 130 -65 0 -89 -3 -89 -12z"/>
<path d="M9210 5043 c-14 -2 -58 -15 -97 -29 -58 -21 -87 -39 -142 -90 -89
-83 -115 -124 -107 -168 8 -42 50 -85 85 -88 81 -5 129 5 201 43 79 41 174
124 163 142 -3 6 -1 7 5 3 18 -11 111 140 112 182 0 9 -25 12 -97 11 -54 -1
-109 -4 -123 -6z"/>
<path d="M2409 4877 c-119 -80 -176 -187 -186 -352 l-5 -90 35 -34 c31 -29 40
-33 71 -27 19 4 41 12 48 19 7 7 25 20 40 30 42 26 85 111 99 191 11 67 6 255
-7 291 -9 23 -25 18 -95 -28z"/>
<path d="M8293 4893 c-4 -16 -8 -91 -8 -168 0 -131 2 -143 27 -195 40 -84 108
-147 171 -157 27 -4 37 1 66 31 l34 35 -6 88 c-3 48 -15 115 -27 148 -24 70
-104 179 -126 171 -7 -3 -13 0 -11 6 2 10 -86 67 -105 68 -4 0 -11 -12 -15
-27z"/>
<path d="M2613 4507 c-97 -102 -141 -231 -130 -375 4 -42 10 -87 13 -99 6 -20
38 -40 57 -35 4 1 7 -2 7 -7 0 -5 9 -11 21 -14 16 -4 31 5 59 36 21 23 36 45
33 51 -3 5 -1 6 6 2 7 -5 21 13 39 51 25 53 27 68 27 183 0 137 -15 198 -59
239 l-23 21 -50 -53z"/>
<path d="M8112 4538 c-38 -41 -54 -98 -60 -208 -5 -112 12 -202 43 -234 8 -8
15 -18 15 -23 0 -4 20 -29 43 -55 34 -37 48 -46 65 -41 12 3 22 9 22 14 0 5 3
8 8 7 18 -5 50 15 56 35 15 53 18 179 7 239 -17 83 -70 183 -129 241 l-48 47
-22 -22z"/>
<path d="M1627 4535 c-27 -7 -51 -16 -54 -19 -12 -12 45 -105 97 -157 123
-124 333 -194 431 -144 35 19 69 70 69 104 0 52 -156 169 -277 210 -72 24
-190 27 -266 6z"/>
<path d="M8900 4527 c-122 -43 -270 -158 -270 -209 0 -32 38 -89 70 -105 93
-47 305 24 425 142 55 54 115 148 102 161 -3 3 -29 12 -58 20 -83 21 -192 18
-269 -9z"/>
<path d="M2905 4182 c-84 -67 -144 -193 -145 -303 0 -79 72 -231 102 -213 6 4
9 3 6 -2 -3 -5 0 -15 8 -22 8 -7 14 -9 14 -5 0 4 4 2 9 -6 7 -11 21 -2 63 40
98 98 103 203 21 462 l-28 89 -50 -40z"/>
<path d="M7811 4112 c-60 -207 -65 -296 -23 -379 27 -52 102 -119 114 -101 4
7 8 9 8 5 0 -4 6 -2 14 5 8 7 12 16 9 21 -2 4 1 6 8 5 7 -2 27 18 45 45 97
142 50 368 -100 475 l-44 31 -31 -107z"/>
<path d="M2040 4074 c-89 -15 -189 -37 -200 -44 -21 -13 32 -93 93 -142 90
-71 170 -101 302 -113 61 -5 134 16 198 59 24 16 41 66 18 52 -5 -4 -7 3 -4
15 8 31 -97 129 -163 152 -49 17 -194 30 -244 21z"/>
<path d="M8570 4067 c-30 -7 -72 -21 -93 -31 -45 -22 -121 -104 -136 -146 -10
-30 -9 -32 42 -64 135 -86 329 -61 484 62 50 40 112 126 100 139 -4 3 -41 14
-84 24 -104 25 -243 32 -313 16z"/>
<path d="M3549 3638 c-1 -7 -1 -17 0 -21 1 -5 -3 -6 -7 -3 -9 5 -26 -33 -52
-118 -8 -26 -11 -70 -7 -126 10 -150 67 -239 179 -276 42 -14 52 -14 59 -3 30
48 38 238 15 325 -20 76 -64 151 -115 195 -45 40 -70 49 -72 27z"/>
<path d="M7178 3611 c-52 -47 -101 -134 -118 -213 -15 -65 -9 -235 10 -285 10
-29 40 -47 40 -25 0 4 11 9 26 10 60 5 126 65 155 141 26 69 35 180 21 248
-14 65 -60 163 -77 163 -7 0 -32 -18 -57 -39z"/>
<path d="M2785 3301 c-55 -14 -120 -48 -172 -90 -29 -23 -53 -45 -53 -50 0
-19 118 -86 199 -114 74 -25 96 -29 166 -25 91 5 147 27 206 80 59 53 73 81
60 121 -11 31 -18 36 -84 57 -77 24 -263 37 -322 21z"/>
<path d="M7715 3285 c-44 -13 -83 -24 -87 -25 -3 0 -12 -16 -18 -35 -10 -30
-9 -40 9 -68 27 -44 111 -106 167 -123 72 -22 162 -18 254 12 52 16 78 29 74
36 -4 7 -2 8 5 4 12 -8 61 19 99 54 l24 22 -44 40 c-24 21 -72 53 -108 70 -59
29 -75 32 -180 35 -100 3 -126 0 -195 -22z"/>
<path d="M1232 2958 c-13 -35 -29 -76 -36 -93 -8 -16 -21 -52 -31 -80 -9 -27
-23 -63 -30 -80 -7 -16 -25 -64 -40 -105 -14 -41 -30 -84 -35 -95 -5 -11 -23
-58 -41 -105 -64 -170 -121 -316 -137 -350 -9 -19 -15 -38 -15 -41 4 -14 -48
-124 -57 -121 -6 1 -8 -8 -4 -23 4 -16 -3 -48 -20 -91 -15 -36 -24 -69 -21
-75 4 -5 2 -9 -3 -9 -9 0 -32 -51 -32 -71 0 -7 85 -73 125 -96 11 -6 24 -9 29
-6 5 4 6 1 2 -5 -6 -9 223 -175 239 -172 3 0 15 -9 27 -20 12 -11 29 -18 37
-15 9 3 12 3 8 -1 -8 -8 7 -20 76 -58 26 -14 59 -33 72 -42 14 -9 25 -12 25
-8 0 5 5 1 11 -8 6 -11 16 -15 26 -11 10 4 14 2 9 -5 -3 -6 3 -14 15 -17 12
-4 47 -22 78 -40 32 -19 64 -35 72 -37 8 -2 16 -6 19 -9 10 -14 334 -161 356
-163 12 0 20 -3 18 -5 -6 -7 54 -31 69 -27 6 1 8 1 4 -2 -10 -5 48 -33 108
-51 22 -7 64 -24 94 -37 42 -19 56 -22 67 -13 12 9 13 9 9 -3 -4 -11 3 -17 24
-21 17 -4 34 -6 37 -6 4 0 10 -3 13 -8 10 -15 200 -75 212 -67 7 4 9 3 5 -4
-4 -6 1 -11 11 -10 10 0 35 -7 56 -16 20 -9 37 -13 37 -10 0 4 6 1 14 -5 7 -6
21 -9 30 -5 9 3 16 1 16 -5 0 -7 6 -11 13 -10 6 1 19 -1 27 -4 24 -11 156 -47
270 -73 58 -14 125 -31 150 -39 25 -8 61 -17 80 -19 19 -3 66 -12 104 -21 38
-9 75 -14 83 -11 8 3 12 2 9 -2 -3 -4 68 -20 157 -35 89 -15 181 -31 205 -36
29 -6 42 -5 42 3 0 8 3 8 8 -1 7 -10 48 -19 137 -28 22 -2 76 -8 120 -14 71
-10 125 -16 323 -36 42 -4 52 -3 46 7 -6 10 -5 10 7 2 19 -16 67 -22 234 -31
177 -10 971 -10 1130 -1 247 16 396 27 404 32 4 3 55 8 112 11 57 4 111 8 119
10 8 3 38 7 65 10 28 3 79 11 115 16 65 11 83 13 153 22 57 8 359 63 477 88
25 6 53 11 62 12 9 1 15 4 13 7 -2 3 13 6 33 7 21 0 58 8 83 17 25 9 63 18 84
21 20 2 43 9 51 16 7 6 17 8 22 5 5 -3 65 10 133 29 67 19 129 35 137 35 7 0
10 5 6 11 -4 8 1 9 16 4 15 -5 20 -4 16 4 -4 7 -1 9 8 5 8 -3 21 -2 28 2 7 4
23 9 37 10 13 2 29 8 34 13 6 6 21 11 34 11 13 0 23 5 23 11 0 5 4 8 9 4 5 -3
36 5 68 17 32 12 61 23 66 24 4 1 10 3 15 4 14 4 27 7 45 8 10 1 15 6 12 12
-3 6 1 7 9 4 9 -3 16 -1 16 6 0 6 4 9 9 6 11 -7 42 4 37 13 -2 3 8 6 23 7 15
0 55 14 88 30 34 17 59 26 57 22 -3 -4 2 -5 10 -2 9 3 13 11 9 17 -4 6 0 8 10
4 8 -3 38 5 65 18 28 13 62 27 76 31 14 3 23 11 19 17 -3 6 -1 7 5 3 6 -4 19
-2 29 3 10 5 62 28 115 51 56 25 95 47 91 53 -3 6 -1 7 4 4 14 -9 156 57 146
67 -4 4 0 4 10 0 11 -4 19 0 23 10 3 9 10 13 15 10 5 -3 9 0 9 5 0 6 3 10 8 9
4 -2 21 3 39 11 37 15 44 55 8 46 -16 -5 -15 -3 4 9 14 7 32 11 40 8 10 -4 11
-7 3 -10 -7 -2 -9 -9 -6 -14 5 -7 2 -8 -6 -3 -9 5 -11 4 -6 -3 5 -8 23 -2 59
19 29 16 62 35 75 41 14 7 21 17 17 26 -4 12 -3 13 10 2 12 -10 16 -9 21 4 3
9 9 14 14 11 4 -2 16 4 26 13 10 10 22 18 25 18 10 -1 206 123 277 176 37 28
66 54 64 60 -1 5 2 7 8 3 13 -8 62 30 52 40 -4 5 -2 5 4 2 7 -4 22 2 35 12
l24 19 -19 38 c-11 22 -21 46 -22 54 -2 9 -15 42 -29 74 -14 32 -24 63 -23 69
1 7 -5 28 -14 47 -8 19 -30 71 -48 115 -18 44 -38 94 -45 110 -8 17 -21 50
-30 75 -9 25 -25 63 -35 85 -10 22 -33 78 -51 125 -17 47 -40 103 -49 125 -10
22 -23 56 -30 75 -7 19 -20 53 -30 75 -39 88 -50 113 -50 120 0 6 -46 114 -78
183 -8 18 -18 29 -21 24 -18 -27 -464 -332 -487 -332 -3 0 -39 -19 -81 -42
-69 -38 -74 -42 -57 -55 10 -7 13 -13 8 -13 -6 0 -15 5 -21 11 -9 9 -28 3 -77
-21 -36 -19 -66 -37 -66 -42 0 -5 -4 -7 -9 -3 -14 8 -121 -47 -114 -59 4 -5
-1 -7 -10 -3 -24 9 -142 -43 -125 -55 9 -7 7 -8 -7 -4 -23 6 -278 -87 -268
-98 4 -4 0 -4 -10 0 -9 3 -17 2 -17 -3 0 -5 -8 -9 -17 -9 -21 0 -316 -95 -323
-103 -3 -3 -14 -7 -25 -7 -11 -1 -110 -25 -220 -53 -662 -171 -1365 -255
-2140 -255 -537 0 -919 28 -1425 105 -295 44 -702 131 -959 204 -66 19 -129
32 -138 29 -15 -5 -16 -4 -3 5 13 9 13 11 -3 11 -27 0 -356 112 -511 174 -77
31 -141 54 -144 51 -2 -2 -11 3 -19 11 -9 8 -22 13 -30 10 -8 -3 -11 -2 -8 3
3 5 -5 13 -16 16 -12 4 -65 27 -116 51 -52 25 -99 41 -105 38 -6 -4 -8 -3 -5
3 8 12 -250 146 -265 137 -6 -4 -8 -3 -4 4 4 6 -31 33 -88 66 -51 30 -106 66
-122 79 -16 13 -65 48 -109 77 -44 29 -84 59 -88 67 -14 23 -22 15 -45 -49z
m213 -422 c11 -7 32 -12 47 -11 15 0 24 -3 21 -8 -3 -4 -12 -6 -20 -3 -9 4 -1
-7 16 -23 17 -16 31 -34 31 -41 0 -6 4 -9 8 -6 17 10 12 -139 -6 -204 -15 -54
-21 -64 -37 -62 -11 2 -28 4 -37 5 -9 1 -14 5 -12 9 7 10 -43 41 -55 34 -6 -4
-1 14 10 39 11 26 18 53 15 60 -3 8 0 15 7 18 17 5 -8 57 -27 57 -16 0 -46
-46 -65 -100 -7 -19 -18 -45 -23 -57 -6 -11 -7 -27 -3 -34 5 -7 4 -10 -2 -6
-14 9 -95 -195 -87 -219 4 -15 4 -16 -4 -5 -8 11 -13 4 -22 -29 -9 -35 -9 -45
0 -48 9 -3 9 -7 -1 -13 -11 -8 -9 -13 10 -29 24 -20 42 -26 39 -12 -1 4 4 18
10 32 46 104 51 119 37 130 -16 13 -13 79 3 89 6 4 15 17 19 29 8 21 10 21 75
-23 36 -24 69 -48 72 -53 3 -5 -10 -49 -28 -98 -18 -49 -32 -99 -31 -111 1
-12 -2 -21 -7 -20 -12 3 -60 -122 -51 -136 4 -6 1 -7 -7 -2 -10 6 -12 3 -8
-13 5 -17 3 -19 -11 -12 -23 12 -113 42 -133 43 -9 1 -14 6 -11 11 4 5 -1 7
-11 3 -9 -4 -15 -3 -11 2 3 5 -7 18 -23 29 -15 11 -34 32 -41 46 -8 14 -18 23
-22 20 -5 -3 -6 3 -2 12 3 10 2 15 -3 12 -17 -11 -7 99 16 173 12 39 44 123
71 186 27 64 46 120 42 126 -3 6 -1 7 5 3 12 -7 16 8 14 49 0 12 1 15 5 6 3
-8 15 6 29 38 14 29 21 57 18 63 -4 6 -3 8 3 5 9 -6 75 58 68 65 -9 9 93 -6
110 -16z m7796 -188 c5 1 8 -4 7 -10 -2 -7 3 -12 10 -10 8 1 11 -2 8 -7 -6 -9
51 -86 64 -86 5 0 12 -4 17 -9 5 -5 2 -6 -6 -1 -9 5 -12 3 -9 -6 3 -8 12 -13
19 -11 8 2 11 0 7 -3 -11 -11 11 -47 24 -39 6 4 8 3 4 -4 -3 -5 11 -43 33 -84
21 -40 44 -90 51 -110 6 -21 16 -38 21 -38 6 0 8 -4 5 -9 -3 -5 1 -32 10 -61
22 -74 56 -240 55 -270 -1 -13 -14 -36 -31 -52 -32 -29 -33 -28 -45 27 -30
149 -147 471 -166 460 -4 -3 -7 3 -7 12 2 26 -42 94 -55 86 -6 -3 -7 -1 -3 5
10 16 -12 54 -26 46 -6 -4 -8 -3 -5 2 6 10 -21 53 -91 146 -40 52 -66 73 -84
70 -4 -1 -5 5 -1 13 5 13 7 13 20 -2 14 -17 14 -17 10 5 -3 12 -1 20 4 16 5
-3 19 2 31 11 22 15 25 14 71 -37 27 -29 53 -52 58 -50z m-7546 11 c4 -6 14
-8 22 -5 8 3 12 2 8 -3 -7 -12 54 -43 68 -34 6 4 7 1 2 -7 -6 -10 -4 -12 11
-6 10 4 15 4 11 0 -4 -4 6 -15 23 -25 16 -10 42 -37 57 -60 39 -60 38 -151 -5
-269 -17 -46 -28 -89 -25 -95 4 -5 3 -7 -2 -3 -8 7 -52 -41 -48 -53 2 -6 -1
-7 -68 -15 -35 -4 -56 -1 -87 15 l-41 21 -21 -56 c-17 -47 -18 -59 -8 -73 11
-14 11 -14 -3 -4 -14 11 -18 7 -28 -27 -7 -22 -9 -46 -5 -52 4 -6 3 -8 -4 -4
-13 8 -26 -29 -16 -45 4 -7 3 -9 -4 -5 -6 3 -13 -7 -17 -25 -5 -24 -9 -28 -16
-18 -8 12 -11 12 -20 -1 -9 -13 -10 -12 -5 2 4 12 -3 22 -22 33 -70 38 -69 31
-18 165 26 67 44 125 41 130 -3 4 -1 10 4 12 13 4 142 359 135 370 -3 4 -1 8
5 8 10 0 26 56 22 79 -1 7 2 10 8 7 5 -3 12 7 16 24 7 31 19 38 30 19z m7262
-78 c3 -11 12 -22 20 -25 8 -3 12 -10 8 -15 -5 -9 28 -88 135 -318 24 -53 47
-90 53 -86 6 3 7 1 3 -5 -8 -13 44 -142 57 -142 5 0 37 18 70 40 33 22 61 39
62 38 1 -2 7 -18 15 -36 10 -25 15 -30 22 -20 6 9 7 6 3 -10 -4 -15 -2 -24 9
-28 13 -5 13 -8 -2 -23 -9 -10 -29 -26 -45 -36 -23 -15 -25 -20 -15 -34 10
-13 10 -14 -2 -3 -17 14 -34 16 -25 2 3 -6 -1 -7 -9 -4 -9 3 -16 1 -16 -5 0
-6 -5 -10 -12 -9 -7 2 -12 -2 -13 -9 0 -6 -4 -15 -9 -20 -5 -5 -6 -3 -2 5 8
14 -5 16 -19 4 -6 -5 -27 -19 -47 -31 l-37 -22 -24 53 c-13 29 -34 77 -47 105
-13 30 -27 50 -33 46 -6 -3 -7 -1 -3 5 8 13 -23 94 -34 87 -4 -3 -11 2 -14 11
-3 8 -2 12 4 9 14 -9 13 -1 -7 39 -9 19 -21 32 -26 29 -6 -3 -7 -2 -4 4 8 13
-23 94 -34 87 -5 -3 -6 1 -3 9 7 19 -62 163 -70 146 -3 -8 -4 -5 -1 6 3 11 -6
44 -20 73 -13 28 -20 52 -14 52 6 0 7 5 3 12 -4 6 -3 8 3 5 6 -4 27 3 49 13
48 25 65 25 71 1z m-157 -201 c49 -219 115 -393 196 -522 21 -33 27 -37 44
-28 13 7 21 7 26 -2 4 -6 3 -8 -2 -5 -6 3 -16 2 -24 -3 -10 -6 -7 -19 19 -59
18 -28 38 -48 44 -44 6 3 7 1 3 -5 -4 -6 3 -22 15 -36 18 -21 26 -23 43 -15
19 9 20 9 4 -4 -18 -14 -26 -33 -10 -23 4 2 8 -4 8 -14 0 -10 -4 -16 -8 -14
-4 3 -22 -3 -39 -13 l-31 -18 -70 75 c-38 41 -76 87 -84 103 -8 15 -17 27 -20
27 -3 0 -3 -4 0 -8 3 -5 -1 -9 -9 -9 -11 0 -12 4 -4 13 7 9 0 28 -26 69 -20
31 -47 79 -59 106 -13 27 -27 45 -31 41 -5 -4 -5 -1 -1 6 7 11 -11 79 -24 92
-3 3 -6 14 -7 25 -1 11 -11 70 -22 130 -11 61 -23 142 -26 181 l-7 71 30 12
c21 9 29 18 26 29 -5 14 -4 15 4 2 5 -8 24 -80 42 -160z m-6598 36 c19 -9 49
-27 65 -40 17 -14 33 -22 37 -19 4 4 4 -1 0 -11 -4 -12 -4 -17 2 -13 11 6 13
-10 13 -98 0 -72 -3 -102 -12 -111 -4 -4 -7 -15 -7 -25 0 -27 -16 -31 -57 -14
-20 9 -44 13 -52 10 -9 -3 -12 -3 -8 1 4 4 0 12 -9 19 -13 9 -14 18 -5 51 23
84 7 129 -39 104 -21 -11 -45 -74 -34 -91 4 -7 3 -10 -2 -6 -8 4 -103 -280
-108 -323 -1 -9 -5 -21 -9 -27 -4 -6 -10 -31 -13 -55 -7 -47 1 -59 43 -72 23
-7 21 -11 69 157 4 11 0 17 -10 17 -9 0 -16 7 -16 17 0 24 33 123 41 123 3 0
27 -9 52 -20 25 -11 53 -17 64 -14 14 5 15 4 4 -4 -11 -8 -9 -11 10 -14 16 -2
25 -11 27 -26 2 -13 8 -20 15 -16 7 3 5 0 -4 -8 -16 -13 -71 -184 -73 -225 -1
-13 -4 -23 -7 -23 -7 0 -22 -61 -23 -90 0 -8 -5 -20 -11 -26 -13 -14 -103 -24
-107 -12 -2 5 -22 10 -45 11 -23 0 -40 4 -38 7 4 6 -61 43 -77 44 -5 1 -7 3
-6 6 1 3 -11 25 -26 49 -27 41 -28 50 -23 125 3 53 16 115 37 181 19 55 33
114 33 130 0 17 2 24 5 16 3 -8 22 38 44 103 60 182 104 239 182 231 23 -2 58
-11 78 -19z m7484 -121 c6 -14 8 -13 21 2 13 17 13 16 4 -4 -9 -17 -6 -30 12
-62 13 -23 26 -39 28 -36 3 2 5 -4 5 -14 0 -12 -5 -17 -15 -13 -10 4 -12 1 -6
-9 4 -8 5 -11 0 -7 -4 4 -23 -2 -42 -13 -19 -12 -36 -20 -37 -18 -2 2 -18 33
-36 68 l-32 64 22 17 c18 13 20 19 9 24 -8 3 -4 3 8 1 12 -3 24 -1 28 5 9 15
25 12 31 -5z m-1351 -25 c-9 -14 28 -29 46 -20 11 6 16 5 16 -5 0 -7 -6 -11
-13 -8 -7 3 0 -19 16 -49 16 -29 34 -74 40 -100 7 -26 16 -46 20 -43 4 2 3
-16 -1 -41 -5 -26 -6 -51 -2 -57 3 -6 1 -7 -5 -3 -7 4 -12 1 -12 -7 0 -7 -8
-22 -18 -33 -18 -19 -18 -19 19 -19 44 0 74 -24 104 -82 11 -21 24 -41 28 -44
5 -3 8 -9 8 -13 -4 -25 0 -36 11 -30 6 4 8 3 5 -3 -8 -13 40 -155 56 -165 10
-6 -12 -17 -108 -56 -22 -8 -43 -20 -46 -25 -3 -5 -9 1 -12 12 -3 12 -1 19 4
15 12 -7 12 -5 -7 49 -9 26 -20 45 -24 42 -4 -3 -6 5 -2 17 3 14 1 19 -6 14
-8 -5 -10 -2 -6 9 4 8 2 21 -4 28 -11 13 -12 17 -12 45 0 15 -2 15 -11 2 -8
-12 -9 -11 -5 5 7 24 -28 85 -48 85 -28 0 -46 -12 -46 -32 0 -12 4 -17 12 -12
6 4 8 3 4 -4 -3 -6 -1 -23 6 -39 6 -15 12 -30 13 -33 26 -90 67 -205 75 -215
8 -10 4 -14 -15 -19 -16 -4 -23 -11 -19 -18 4 -7 3 -8 -4 -4 -7 4 -31 -2 -55
-12 l-44 -19 -38 118 c-22 65 -43 115 -48 112 -6 -3 -7 -1 -3 5 10 16 -4 63
-17 55 -5 -3 -7 -1 -3 5 9 15 -45 182 -57 175 -6 -3 -7 -1 -3 5 4 7 -16 81
-43 164 -28 84 -51 158 -51 165 0 10 25 23 56 29 11 2 61 23 111 46 11 6 27 7
34 3 7 -5 10 -4 6 2 -4 6 12 8 45 5 40 -4 49 -2 43 8 -5 9 -4 11 4 6 6 -4 9
-11 6 -16z m-5674 -39 c22 -12 46 -18 52 -15 7 4 9 4 5 -1 -4 -4 2 -21 14 -38
27 -38 34 -112 18 -206 -10 -59 -15 -71 -28 -67 -128 36 -130 37 -121 68 13
46 14 117 2 129 -24 24 -51 -1 -72 -64 -17 -51 -79 -286 -96 -362 -2 -11 -9
-38 -14 -60 -6 -22 -11 -50 -11 -62 0 -21 24 -53 40 -53 16 0 41 32 36 46 -3
7 0 15 7 17 9 3 8 8 -2 21 -12 14 -12 16 1 11 10 -4 17 5 24 29 l9 35 55 -24
c29 -12 60 -21 67 -18 29 11 1 -118 -42 -193 -19 -32 -22 -44 -12 -54 10 -12
9 -12 -3 -3 -11 9 -20 8 -34 -3 -66 -48 -231 18 -275 109 -26 54 -26 107 -1
222 12 50 22 99 23 110 1 11 4 22 7 25 8 7 64 211 64 233 0 9 3 17 7 17 8 0
24 59 21 73 -1 4 3 7 9 7 6 0 8 7 5 16 -3 8 -2 12 3 9 6 -3 17 8 27 24 10 16
27 34 38 40 31 16 131 6 177 -18z m5305 -153 c15 -46 33 -87 40 -91 8 -4 14
-13 14 -20 0 -7 -4 -6 -10 3 -18 28 -10 2 75 -258 47 -142 85 -263 85 -270 0
-7 4 -12 8 -12 4 0 8 -8 8 -17 0 -10 4 -28 8 -40 6 -20 2 -24 -51 -39 -32 -9
-64 -21 -71 -27 -18 -15 -23 -7 -57 103 -17 55 -35 97 -39 93 -5 -5 -5 3 -1
16 5 18 4 22 -5 16 -9 -5 -11 -4 -6 3 4 7 -18 94 -50 194 -31 101 -61 200 -66
221 -6 20 -14 37 -19 37 -5 0 -6 6 -3 14 3 8 1 24 -6 35 -6 12 -13 39 -15 62
-3 32 -1 40 10 35 8 -3 31 1 52 9 66 24 69 22 99 -67z m-4826 -2 c51 -13 100
-22 108 -18 10 3 13 1 8 -6 -4 -6 1 -10 11 -10 10 1 44 -6 77 -16 l58 -17 -7
-47 c-3 -26 -9 -58 -12 -70 -6 -25 -12 -25 -86 -7 -23 6 -25 3 -32 -37 -21
-130 -107 -610 -116 -650 -6 -27 -15 -48 -21 -48 -5 0 -6 -5 -2 -12 4 -7 3 -8
-5 -4 -6 4 -9 11 -6 15 2 5 -22 14 -54 21 -32 7 -64 16 -71 20 -13 8 19 198
110 652 l17 87 -33 11 c-19 6 -39 8 -45 4 -8 -4 -9 -3 -5 4 5 8 -1 12 -16 13
-13 0 -17 3 -10 6 6 2 12 11 12 18 0 18 21 115 25 115 1 0 45 -11 95 -24z
m4483 -24 c-7 -5 4 -14 31 -25 25 -10 49 -30 60 -48 15 -26 20 -28 34 -17 15
11 15 11 5 -3 -10 -12 -7 -29 16 -85 15 -38 40 -114 56 -169 16 -55 32 -102
35 -105 3 -3 6 -12 6 -20 1 -8 9 -52 19 -98 13 -65 15 -92 7 -125 -6 -22 -8
-46 -5 -51 3 -6 3 -8 -2 -4 -5 5 -17 -6 -27 -22 -10 -17 -29 -36 -43 -42 -21
-9 -23 -14 -12 -27 10 -14 10 -14 -5 -3 -11 9 -22 10 -35 4 -10 -5 -53 -18
-95 -28 -43 -10 -78 -21 -78 -25 0 -4 -8 -5 -19 -2 -13 3 -24 26 -40 83 -11
42 -21 85 -21 94 0 9 -3 16 -7 16 -5 0 -9 11 -9 25 -1 14 -5 33 -9 43 -4 9 -9
24 -10 33 -5 46 -50 209 -57 209 -5 0 -7 4 -4 9 8 12 -56 261 -65 256 -4 -3
-10 2 -13 11 -3 8 -2 12 4 9 13 -8 13 11 0 35 -9 16 -2 20 59 35 61 15 201 42
226 44 6 0 5 -3 -2 -7z m-4065 -74 c43 -10 52 -16 52 -33 0 -12 -18 -143 -40
-292 -21 -148 -39 -278 -39 -289 -1 -23 -42 -288 -46 -292 -2 -2 -40 5 -85 15
-72 16 -80 20 -76 38 19 75 96 601 90 617 -3 11 -2 18 3 15 5 -3 17 51 28 119
17 119 19 125 39 119 12 -3 45 -11 74 -17z m257 -52 c32 -4 70 -9 83 -13 l24
-6 -7 -276 c-4 -152 -4 -292 0 -311 l8 -35 14 60 c17 74 55 248 90 415 14 69
27 126 27 127 1 1 48 -5 104 -14 l102 -16 0 -36 c0 -20 -9 -153 -20 -296 -10
-143 -24 -332 -31 -420 -6 -88 -12 -161 -13 -161 0 -1 -33 3 -73 9 l-71 10 4
31 c11 82 55 619 52 639 -2 12 -20 -57 -40 -153 -73 -343 -100 -463 -109 -487
-8 -22 -29 -32 -29 -14 0 5 -27 12 -60 16 l-60 7 -2 351 -3 352 -39 -335 c-21
-184 -42 -338 -45 -343 -6 -6 -120 9 -129 18 -1 1 4 49 12 106 16 111 64 484
65 509 1 16 27 192 36 247 5 29 32 49 45 32 3 -3 32 -9 65 -13z m3166 -61 c12
-35 27 -61 32 -58 6 4 7 1 3 -6 -7 -11 45 -178 64 -206 4 -5 19 -49 35 -97 16
-48 32 -85 36 -82 4 2 7 -6 7 -19 0 -12 25 -87 55 -167 51 -134 54 -145 36
-148 -11 -2 -17 -6 -15 -10 2 -4 -8 -7 -22 -8 -15 0 -47 -3 -72 -6 l-45 -6 -1
35 c0 19 -5 38 -10 41 -5 4 -9 12 -9 17 0 6 -4 24 -9 42 -7 32 -8 32 -59 28
-29 -3 -58 -6 -65 -7 -10 -1 -13 -23 -10 -94 3 -86 2 -93 -17 -98 -37 -9 -110
-18 -118 -14 -9 3 -14 110 -22 558 -5 214 -10 317 -18 322 -11 7 5 12 78 23
69 11 100 17 104 21 12 11 21 -2 42 -61z m-2471 -30 c79 -8 146 -12 149 -10 3
2 6 -32 6 -75 l0 -79 -76 6 -76 6 -6 -63 c-4 -35 -7 -82 -7 -106 l0 -43 53 -6
c28 -4 59 -5 67 -3 12 2 16 -12 18 -75 l3 -79 -74 7 -74 7 -8 -122 c-4 -67 -5
-123 -3 -126 8 -7 151 -23 160 -18 4 3 8 -32 8 -77 l0 -82 -37 6 c-21 3 -100
11 -177 18 l-138 13 6 85 c21 268 53 826 49 840 -4 12 -2 13 4 3 6 -7 64 -18
153 -27z m2016 -10 c44 -18 78 -75 98 -163 16 -70 19 -185 5 -176 -10 6 -20
-26 -12 -38 3 -6 2 -9 -3 -6 -5 3 -25 -5 -44 -18 l-34 -24 37 0 c20 0 37 -5
37 -11 0 -6 7 -8 16 -5 8 3 12 2 9 -3 -3 -6 1 -13 8 -18 23 -14 48 -94 73
-233 13 -74 24 -138 24 -142 0 -5 -17 -8 -37 -8 -28 0 -34 -3 -23 -10 10 -6 3
-8 -22 -3 -22 3 -38 2 -38 -4 0 -5 -10 -9 -22 -8 -21 1 -25 11 -40 101 -9 54
-22 129 -28 167 -8 42 -16 65 -22 60 -7 -4 -8 -1 -3 7 10 16 -12 30 -48 30
l-28 0 6 -57 c4 -32 11 -78 16 -103 5 -25 11 -70 14 -99 2 -30 7 -67 10 -82 7
-30 7 -30 -106 -43 -46 -5 -47 -5 -53 27 -4 24 -93 708 -109 842 -2 18 7 21
93 31 107 13 177 10 226 -11z m-1553 -21 c9 2 17 0 17 -5 0 -5 13 -9 30 -9 33
0 110 -65 110 -93 0 -10 4 -17 8 -17 5 0 9 -44 11 -97 1 -54 4 -106 8 -117 4
-13 2 -16 -8 -11 -9 6 -11 3 -6 -8 3 -10 2 -17 -3 -17 -6 0 -10 -6 -10 -14 0
-17 -56 -66 -76 -66 -8 0 -14 -5 -14 -11 0 -6 7 -9 15 -5 8 3 15 1 15 -4 0 -6
5 -10 11 -10 15 0 36 -26 57 -70 12 -26 17 -77 22 -202 l5 -167 -90 -3 -90 -3
3 175 c3 194 0 205 -55 216 l-33 7 0 -172 c0 -130 3 -171 13 -172 10 0 10 -2
0 -6 -7 -2 -13 -11 -13 -19 0 -11 -18 -14 -79 -14 -96 0 -88 -25 -80 260 4
113 7 289 8 391 0 102 4 206 7 230 l6 45 97 -8 c53 -5 104 -7 114 -4z m551 -9
c42 -15 79 -10 54 7 -11 8 -10 9 1 6 8 -2 15 -11 17 -20 1 -12 -3 -15 -14 -11
-12 4 -10 -2 7 -20 13 -15 28 -24 34 -20 6 3 7 1 3 -6 -4 -6 0 -30 8 -54 9
-23 19 -72 24 -109 l9 -68 -84 0 -83 0 0 45 c0 25 -5 45 -11 45 -5 0 -7 5 -4
10 12 19 -6 50 -28 50 -51 -1 -51 1 -43 -276 7 -238 18 -352 34 -355 82 -14
85 -9 77 100 -7 79 -10 91 -26 91 -25 0 -27 6 -30 85 l-2 70 54 -3 c30 -2 75
1 101 6 l47 9 5 -41 c3 -22 11 -126 18 -230 12 -178 12 -189 -4 -194 -10 -2
-16 -7 -14 -11 2 -3 -6 -7 -17 -8 -12 -1 -57 -10 -99 -20 -66 -15 -86 -15
-134 -5 -31 6 -71 23 -89 36 -18 14 -36 22 -39 18 -4 -3 -4 2 0 12 6 15 4 17
-6 11 -9 -5 -11 -4 -6 3 4 6 0 33 -9 59 -22 63 -39 481 -24 598 5 44 11 90 12
102 1 11 5 19 10 16 4 -2 7 0 7 6 0 23 69 62 126 70 80 12 74 12 118 -4z m515
-23 c6 -20 14 -55 19 -77 50 -215 117 -451 130 -463 10 -7 11 -11 5 -7 -16 8
-16 6 4 -71 9 -35 21 -64 26 -64 4 0 5 -4 2 -10 -3 -5 3 -41 15 -78 11 -38 20
-72 20 -76 0 -3 -23 -6 -51 -6 -36 0 -48 -3 -43 -12 5 -8 2 -9 -10 -5 -10 4
-28 7 -41 7 -21 0 -24 8 -41 90 l-18 90 -37 0 c-20 0 -51 -3 -68 -6 -31 -6
-31 -7 -31 -69 0 -90 -9 -125 -31 -125 -11 0 -19 -6 -19 -12 0 -10 -2 -10 -8
-1 -4 6 -30 13 -57 15 -41 2 -49 6 -47 21 2 10 -3 17 -13 17 -8 0 -15 4 -15
10 0 5 7 7 15 4 8 -3 17 0 19 7 8 23 55 690 53 751 -1 31 1 54 6 51 4 -2 7 8
7 24 l0 28 100 2 99 2 10 -37z"/>
<path d="M1730 2133 c-6 -27 -16 -57 -20 -68 -49 -113 -51 -134 -14 -130 15 1
32 11 38 21 22 37 46 109 41 122 -3 7 0 10 5 7 19 -11 11 61 -8 78 -10 10 -21
17 -24 17 -3 0 -11 -21 -18 -47z"/>
<path d="M7542 1533 c10 -38 43 -160 73 -273 31 -113 57 -211 60 -218 8 -21
67 18 61 40 -2 10 0 15 5 12 14 -8 8 16 -55 225 -9 29 -16 60 -16 67 0 8 -5
14 -11 14 -5 0 -8 4 -5 8 9 14 -26 132 -37 125 -6 -4 -7 -1 -2 6 4 7 2 24 -6
37 -10 19 -21 24 -49 24 l-37 0 19 -67z"/>
<path d="M6900 1379 c0 -13 5 -91 11 -174 l12 -150 44 4 c29 2 43 7 40 15 -3
6 -26 81 -52 166 -27 85 -50 157 -52 159 -1 2 -3 -7 -3 -20z"/>
<path d="M6375 1368 c3 -18 11 -71 18 -117 13 -91 24 -104 68 -74 20 15 21 21
15 86 -9 94 -23 123 -61 120 -23 -2 -26 0 -15 7 12 8 10 10 -8 10 -20 0 -22
-4 -17 -32z"/>
<path d="M4900 1235 l0 -125 25 0 c14 0 25 5 25 10 0 6 6 10 14 10 7 0 16 10
20 23 9 35 7 149 -3 143 -5 -4 -7 2 -4 13 5 21 -30 51 -59 51 -16 0 -18 -12
-18 -125z"/>
<path d="M5939 1168 c-2 -87 -3 -175 -3 -195 -1 -37 0 -38 42 -41 23 -1 42 1
42 5 0 4 -18 94 -39 198 l-40 190 -2 -157z"/>
<path d="M3870 2801 c-168 -24 -287 -94 -350 -205 -17 -28 -30 -54 -30 -57 0
-10 72 -26 176 -39 134 -18 275 11 333 69 12 12 21 18 21 14 0 -3 9 2 20 12
12 10 18 25 15 32 -2 8 -1 12 4 9 5 -3 17 11 26 30 18 39 16 107 -5 128 -13
13 -135 17 -210 7z"/>
<path d="M6742 2804 c-63 -14 -50 -142 22 -210 72 -69 210 -110 331 -99 72 6
204 31 212 39 3 3 -8 28 -23 56 -50 92 -148 162 -270 194 -62 16 -232 28 -272
20z"/>
</g>
</svg>
