<?xml version="1.0" standalone="no"?>
<!DOCTYPE svg PUBLIC "-//W3C//DTD SVG 20010904//EN"
 "http://www.w3.org/TR/2001/REC-SVG-20010904/DTD/svg10.dtd">
<svg version="1.0" xmlns="http://www.w3.org/2000/svg"
 width="300.000000pt" height="298.000000pt" viewBox="0 0 300.000000 298.000000"
 preserveAspectRatio="xMidYMid meet">
<metadata>
Created by potrace 1.10, written by Peter Selinger 2001-2011
</metadata>
<g transform="translate(0.000000,298.000000) scale(0.100000,-0.100000)"
fill="#000000" stroke="none">
<path d="M2980 1490 c0 -987 3 -1490 10 -1490 7 0 10 503 10 1490 0 987 -3
1490 -10 1490 -7 0 -10 -503 -10 -1490z"/>
<path d="M1465 2900 l-18 -59 -70 -3 -70 -3 57 -38 c62 -41 61 -39 30 -116
-22 -52 -17 -55 29 -20 23 18 47 36 53 41 7 5 31 -7 63 -32 28 -22 53 -40 56
-40 2 0 -6 29 -19 65 l-23 64 56 38 56 38 -70 5 -69 5 -16 52 c-9 29 -18 54
-21 58 -3 3 -14 -22 -24 -55z m87 -90 c21 0 21 0 -1 -24 -17 -18 -22 -32 -17
-50 7 -29 4 -31 -24 -13 -17 10 -26 9 -50 -5 l-29 -17 6 30 c4 23 0 36 -17 54
l-23 25 23 0 c28 0 60 26 60 49 0 10 9 5 26 -16 14 -19 35 -33 46 -33z"/>
<path d="M811 2593 c-34 -42 -41 -95 -17 -128 12 -17 16 -18 31 -5 29 24 47
78 40 121 -4 21 -10 41 -15 44 -5 3 -22 -12 -39 -32z m25 -45 c-3 -13 -6 -31
-6 -41 0 -25 -25 -16 -25 9 -1 26 13 54 27 54 6 0 8 -9 4 -22z"/>
<path d="M2148 2624 c-26 -44 -14 -126 23 -160 20 -18 21 -18 35 1 26 35 18
91 -19 132 -19 20 -36 32 -39 27z m42 -100 c0 -35 -13 -46 -24 -18 -3 9 -6 29
-6 46 0 26 2 29 15 18 8 -7 15 -28 15 -46z"/>
<path d="M931 2557 c-14 -6 -32 -24 -40 -39 -16 -27 -143 -148 -155 -148 -4 0
-2 9 4 19 24 46 2 156 -27 138 -18 -11 -43 -74 -43 -106 0 -21 8 -40 24 -54
l24 -22 -33 -39 -33 -39 0 51 c0 50 -21 102 -41 102 -12 0 -41 -74 -41 -103 0
-28 26 -67 46 -67 8 0 14 -4 14 -9 0 -8 -50 -101 -54 -101 -2 0 -3 20 -3 44 0
41 -34 116 -53 116 -16 0 -32 -61 -27 -103 6 -44 37 -80 62 -71 10 4 8 -9 -8
-50 l-22 -56 -12 47 c-14 54 -56 104 -74 86 -15 -15 -15 -93 0 -121 16 -30 61
-48 74 -30 6 9 7 5 3 -12 -42 -168 -48 -217 -42 -335 6 -109 27 -212 62 -300
6 -15 -1 -12 -29 13 -24 20 -48 32 -67 32 -15 0 -35 3 -44 6 -27 10 -19 -22
14 -60 17 -19 47 -40 67 -47 33 -11 39 -10 52 7 14 19 16 17 43 -36 34 -67 34
-69 5 -42 -43 40 -137 51 -137 17 0 -16 66 -75 85 -75 7 0 20 -3 28 -6 9 -3
24 3 36 15 l20 20 42 -57 c24 -31 61 -77 84 -101 27 -30 34 -42 20 -37 -41 16
-84 18 -119 6 -42 -13 -45 -23 -13 -45 59 -41 138 -39 152 5 l7 22 26 -25 c15
-14 63 -49 107 -79 l81 -55 -46 5 c-35 3 -52 -1 -79 -20 -46 -31 -48 -44 -10
-52 81 -16 136 0 150 43 3 9 14 8 41 -3 20 -9 90 -20 155 -26 194 -17 213 -20
213 -40 0 -9 9 -29 21 -44 29 -37 89 -37 118 0 12 15 21 35 21 44 0 18 53 27
264 45 38 3 85 13 105 21 26 11 37 12 40 3 14 -43 69 -59 150 -43 38 8 36 21
-10 52 -27 19 -44 23 -79 20 l-46 -5 81 55 c44 30 92 65 107 79 l26 25 7 -22
c9 -30 49 -43 93 -30 41 11 82 36 82 50 0 19 -80 34 -121 23 -21 -6 -39 -9
-39 -7 0 3 27 37 61 77 63 74 149 211 149 235 0 9 7 6 18 -8 17 -21 21 -22 55
-11 35 12 97 73 97 96 0 8 -17 9 -50 5 -36 -5 -59 -15 -80 -35 -33 -32 -35
-30 -19 12 40 102 52 171 53 313 1 121 -3 158 -22 227 -24 87 -27 106 -14 85
12 -18 57 0 73 29 14 27 14 108 -1 123 -17 17 -60 -34 -73 -87 l-12 -47 -22
56 c-16 41 -18 54 -8 50 25 -9 56 27 62 71 5 42 -11 103 -27 103 -19 0 -52
-72 -52 -115 -1 -25 -2 -45 -4 -45 -4 0 -54 92 -54 101 0 5 6 9 14 9 20 0 46
39 46 67 0 29 -29 103 -41 103 -20 0 -40 -51 -41 -101 l0 -53 -33 40 -33 39
24 22 c16 14 24 33 24 54 0 32 -25 95 -43 106 -29 18 -51 -92 -27 -138 6 -10
8 -19 4 -19 -12 0 -139 121 -155 148 -20 35 -54 52 -106 52 -53 0 -55 -14 -9
-59 28 -27 45 -35 86 -39 46 -4 59 -11 113 -61 91 -85 172 -192 221 -294 66
-139 87 -228 93 -387 l4 -135 -20 43 c-19 39 -64 72 -101 72 -30 0 15 -100 54
-118 14 -6 33 -9 42 -5 15 6 17 0 11 -54 -13 -127 -99 -311 -204 -439 -89
-107 -236 -218 -351 -263 -54 -22 -61 -19 -37 13 14 19 22 116 9 116 -35 0
-91 -92 -79 -130 6 -19 1 -20 -67 -20 -40 0 -101 -5 -136 -10 -53 -9 -65 -8
-78 5 -31 30 -93 27 -115 -7 -3 -5 -32 -5 -70 1 -35 6 -97 11 -137 11 -68 0
-73 1 -67 20 12 38 -44 130 -79 130 -13 0 -5 -97 9 -116 8 -10 15 -22 15 -26
0 -12 -100 31 -164 70 -53 33 -57 37 -35 42 21 6 24 12 24 57 -1 31 -8 60 -19
78 -18 27 -19 28 -32 10 -20 -27 -28 -83 -15 -111 17 -38 -1 -29 -71 35 -84
78 -201 229 -166 216 8 -3 25 3 38 13 19 15 24 31 28 81 5 68 -2 73 -41 37
-25 -23 -33 -42 -40 -96 -2 -21 -8 -15 -35 38 -42 80 -70 170 -79 246 -6 54
-5 59 11 53 26 -10 71 18 90 57 24 52 22 68 -11 60 -48 -12 -64 -24 -84 -67
l-19 -42 -1 40 c0 22 -1 54 -2 70 -1 17 2 62 7 100 26 227 138 444 313 606 54
50 67 57 113 61 41 4 58 12 86 39 19 18 34 39 34 46 0 17 -76 17 -109 0z m59
-25 c0 -13 -46 -34 -65 -30 -17 3 -17 5 -3 18 16 16 68 25 68 12z m1085 -11
c17 -19 16 -20 -6 -17 -53 6 -82 36 -36 36 13 0 32 -9 42 -19z m-1352 -104
c-3 -15 -9 -27 -14 -27 -11 0 -12 74 -2 84 11 11 22 -27 16 -57z m1577 12 c0
-21 -4 -39 -10 -39 -5 0 -10 21 -10 46 0 27 4 43 10 39 6 -3 10 -24 10 -46z
m-1671 -116 c2 -41 0 -45 -14 -33 -10 8 -15 26 -14 49 4 73 24 61 28 -16z
m1771 0 c0 -35 -15 -45 -24 -15 -4 14 -2 53 3 72 4 15 21 -30 21 -57z m-1857
-109 c1 -16 -2 -31 -8 -34 -6 -3 -11 14 -13 40 -3 34 0 42 8 34 7 -7 13 -25
13 -40z m1933 -31 c-3 -8 -11 -11 -17 -8 -10 7 -4 59 10 80 8 13 14 -52 7 -72z
m64 -123 c-6 -11 -16 -18 -21 -14 -12 7 -3 52 14 73 10 12 13 10 15 -12 2 -14
-2 -35 -8 -47z m-2054 19 c8 -22 8 -35 2 -38 -15 -5 -27 11 -34 48 -9 46 17
38 32 -10z m84 -430 c-12 -22 -30 -25 -30 -6 0 17 21 38 32 31 4 -3 3 -14 -2
-25z m1871 21 c21 -12 27 -42 6 -34 -13 5 -41 44 -31 44 3 0 14 -5 25 -10z
m-1936 -331 c-4 -5 -9 -8 -13 -6 -45 20 -62 33 -62 44 0 10 10 8 40 -7 23 -12
38 -25 35 -31z m2065 38 c0 -19 -55 -48 -76 -40 -16 6 -16 7 2 15 10 5 30 15
44 23 31 18 30 18 30 2z m-1898 -77 c-2 -16 -10 -30 -18 -30 -10 0 -11 6 -3
30 6 17 14 30 18 30 4 0 6 -13 3 -30z m-136 -66 c30 -14 46 -34 27 -34 -15 0
-83 34 -83 42 0 12 19 10 56 -8z m374 -235 c0 -16 -4 -29 -10 -29 -5 0 -10 16
-10 36 0 21 4 33 10 29 6 -3 10 -19 10 -36z m-172 -17 c5 -16 -64 -10 -81 7
-9 10 -2 12 32 9 25 -2 46 -9 49 -16z m1612 13 c0 -3 -12 -10 -26 -15 -26 -10
-77 -3 -70 9 6 9 96 14 96 6z m-1215 -135 c5 -26 4 -32 -4 -24 -7 6 -14 28
-17 50 -6 47 10 27 21 -26z m760 43 c-1 -10 -7 -31 -15 -48 -11 -24 -14 -27
-17 -12 -5 20 15 77 27 77 4 0 6 -8 5 -17z m-927 -85 c-6 -16 -52 -28 -69 -17
-8 5 -12 9 -9 10 34 6 43 8 48 13 10 11 34 6 30 -6z m1122 -2 c40 -16 26 -27
-23 -19 -22 3 -37 11 -37 19 0 18 19 18 60 0z m-541 -23 c14 -17 19 -34 15
-47 -7 -27 -41 -56 -64 -56 -23 0 -57 29 -64 56 -9 31 28 74 64 74 19 0 36 -9
49 -27z"/>
<path d="M1378 2490 c-319 -54 -562 -273 -654 -590 -26 -89 -26 -307 -1 -400
45 -162 153 -327 279 -425 406 -318 996 -182 1218 279 52 109 70 181 77 306
13 231 -70 443 -237 608 -177 175 -444 262 -682 222z m265 -24 c243 -47 449
-203 556 -420 61 -125 75 -189 75 -346 0 -156 -13 -220 -74 -345 -94 -195
-286 -353 -500 -412 -91 -24 -309 -24 -400 0 -399 110 -647 511 -564 915 85
414 493 687 907 608z"/>
<path d="M1488 2423 c-9 -16 -32 -44 -50 -64 -18 -20 -41 -50 -51 -68 -10 -20
-23 -31 -31 -28 -7 3 -18 1 -24 -5 -7 -7 -14 -4 -21 11 -7 12 -16 21 -22 21
-6 0 -8 -4 -5 -8 7 -12 -38 -118 -60 -139 -16 -16 -17 -16 -11 -1 3 9 11 35
17 56 5 22 17 45 25 52 12 10 8 20 -30 67 -25 30 -45 59 -45 64 0 24 -33 4
-56 -33 -15 -24 -39 -63 -55 -87 -16 -25 -29 -53 -29 -63 0 -10 -7 -21 -16
-25 -8 -3 -31 -37 -50 -76 -24 -49 -53 -89 -99 -132 -36 -35 -65 -68 -65 -75
0 -8 17 5 38 28 42 45 56 51 66 26 7 -17 -10 -54 -24 -54 -6 0 -10 -7 -10 -15
0 -8 -4 -15 -9 -15 -14 0 -77 -81 -86 -110 l-7 -25 28 26 c16 15 39 31 50 38
25 12 79 134 119 267 15 46 31 87 37 90 8 5 9 1 3 -12 -4 -10 -9 -30 -12 -44
-2 -14 13 18 33 70 40 103 41 106 50 98 8 -8 -17 -90 -33 -109 -7 -8 -21 -40
-32 -70 -10 -30 -28 -72 -40 -94 -11 -22 -21 -43 -21 -48 0 -4 -14 -36 -30
-69 -17 -34 -29 -63 -26 -65 9 -9 87 148 136 275 7 19 20 40 28 48 15 15 52
141 52 177 0 24 39 79 51 72 22 -14 8 -101 -37 -224 -65 -177 -86 -217 -106
-205 -4 3 -8 -3 -8 -13 0 -10 -18 -42 -40 -72 -22 -29 -40 -57 -40 -62 0 -12
32 1 53 23 10 10 21 18 26 18 4 0 13 10 19 23 8 17 11 18 11 5 1 -18 -54 -86
-96 -121 -13 -10 -23 -23 -23 -28 0 -10 92 59 98 74 2 4 7 5 12 2 4 -2 33 34
64 80 31 47 63 85 71 85 9 0 20 12 26 28 12 31 100 182 106 182 2 0 2 -8 -1
-17 -2 -10 -8 -29 -11 -43 -5 -18 -4 -22 4 -15 6 6 15 39 19 73 11 76 32 107
32 47 0 -59 -18 -111 -49 -148 -15 -17 -43 -54 -61 -82 -38 -56 -76 -96 -84
-87 -3 3 -6 -1 -6 -9 0 -15 -69 -121 -102 -156 -12 -13 -19 -25 -16 -28 5 -6
41 28 104 96 16 19 39 41 51 49 11 8 32 34 46 57 14 23 31 44 37 48 14 9 43
65 33 65 -5 0 -16 -14 -25 -30 -9 -17 -22 -30 -28 -30 -15 0 17 53 62 102 28
30 41 59 58 121 24 89 51 149 57 130 7 -21 -27 -154 -57 -223 -26 -60 -55
-156 -31 -105 5 11 15 35 21 53 19 49 21 33 5 -28 -18 -65 -17 -63 -6 -56 5 3
17 48 26 98 11 60 32 127 60 188 24 52 49 114 56 138 19 66 33 52 26 -28 -3
-39 -2 -72 4 -75 5 -4 9 15 10 42 0 26 3 41 5 33 33 -102 44 -149 54 -230 12
-102 48 -253 49 -209 1 15 -6 46 -14 69 -8 23 -15 50 -15 59 0 27 18 -6 36
-67 9 -30 18 -51 21 -48 8 7 -28 108 -47 133 -11 15 -20 51 -25 100 -4 43 -14
92 -22 110 -8 17 -13 42 -11 55 4 22 5 22 17 -6 6 -16 19 -72 27 -125 11 -63
24 -108 39 -131 13 -19 27 -48 31 -65 10 -46 65 -145 80 -145 8 0 16 -11 20
-25 3 -13 12 -29 20 -36 11 -9 14 -7 14 9 0 33 18 35 34 5 8 -15 15 -24 16
-20 0 5 12 -1 26 -12 35 -28 53 -27 26 2 -11 12 -39 53 -61 92 -23 38 -41 65
-41 60 -1 -6 -17 20 -36 58 -19 37 -37 67 -39 67 -3 0 4 -18 15 -41 40 -77 9
-56 -72 48 -42 55 -59 116 -40 149 8 15 12 10 25 -33 15 -50 44 -113 52 -113
2 0 -3 16 -11 35 -18 43 -5 46 19 5 10 -16 24 -30 30 -30 12 0 40 -44 94 -145
12 -24 29 -41 42 -43 12 -2 31 -17 43 -33 24 -32 120 -89 150 -89 16 0 17 3 7
23 -16 29 -32 39 -41 24 -14 -21 -43 30 -61 105 -9 40 -21 76 -27 82 -6 6 -4
-9 5 -33 18 -53 18 -48 -1 -55 -12 -4 -15 -2 -10 9 3 8 0 15 -7 15 -7 0 -20
17 -30 38 -9 20 -24 49 -33 65 -16 29 -33 220 -24 272 9 51 22 11 30 -94 7
-88 36 -191 55 -191 3 0 -1 13 -9 29 -9 16 -18 48 -21 72 l-5 44 19 -40 c10
-22 43 -74 73 -116 31 -42 66 -95 78 -118 13 -22 29 -41 36 -41 7 0 25 -12 40
-27 19 -20 25 -23 20 -10 -3 10 -6 25 -6 33 0 7 -20 35 -45 61 -25 25 -45 52
-45 59 0 8 -9 18 -19 24 -11 5 -25 26 -32 45 -7 19 -16 35 -20 35 -11 0 -69
108 -69 127 1 15 4 14 20 -7 11 -14 24 -30 29 -36 6 -7 21 -38 35 -70 30 -70
34 -57 6 19 -11 30 -42 78 -70 109 -28 31 -57 73 -65 92 -9 20 -19 36 -24 36
-6 0 -20 -14 -32 -31 -15 -22 -27 -29 -42 -25 -15 4 -33 -9 -69 -46 -39 -41
-52 -49 -59 -37 -5 8 -9 17 -9 22 0 4 -8 7 -18 7 -13 0 -23 15 -36 55 -9 30
-27 67 -39 82 -13 16 -31 40 -40 56 -10 15 -21 27 -25 27 -4 0 -15 -12 -24
-27z m-18 -88 c-15 -54 -36 -74 -25 -24 11 50 25 83 32 76 3 -4 0 -27 -7 -52z
m-250 -70 c0 -35 -9 -76 -39 -190 l-8 -30 -8 29 c-8 29 3 117 27 208 14 54 28
45 28 -17z m606 -32 c-14 -26 -31 -55 -38 -64 -15 -18 -58 -43 -58 -33 0 11
112 156 117 151 2 -3 -7 -27 -21 -54z m-40 10 c-18 -36 -46 -62 -46 -43 0 16
50 83 57 77 2 -3 -2 -18 -11 -34z m86 -188 c7 -55 14 -81 18 -67 5 23 5 22 23
-8 11 -17 16 -34 12 -38 -4 -4 -10 -1 -12 6 -3 6 -11 12 -18 12 -22 0 -74 67
-81 105 -3 19 -3 47 0 61 5 17 3 23 -4 19 -15 -9 -13 0 13 49 l22 44 7 -46 c4
-26 13 -87 20 -137z m-720 68 c-2 -29 -8 -51 -12 -48 -4 3 -11 -6 -14 -20 -4
-14 -10 -25 -16 -25 -5 0 3 34 17 76 14 41 26 74 27 72 1 -2 0 -27 -2 -55z
m78 -23 c-6 -11 -13 -20 -16 -20 -2 0 0 9 6 20 6 11 13 20 16 20 2 0 0 -9 -6
-20z m-54 -75 c4 -9 -8 -28 -28 -47 -19 -18 -43 -48 -53 -65 -21 -37 -27 -39
-44 -20 -8 11 2 29 44 80 57 69 71 78 81 52z m558 -46 c27 -34 36 -53 29 -60
-7 -7 -20 7 -42 44 -29 50 -36 67 -28 67 2 0 20 -23 41 -51z m171 -59 c3 -5 1
-10 -4 -10 -6 0 -11 5 -11 10 0 6 2 10 4 10 3 0 8 -4 11 -10z m-91 -35 c25
-38 8 -52 -22 -20 -20 22 -22 29 -11 36 8 5 15 9 15 9 1 0 9 -11 18 -25z"/>
<path d="M1041 2024 c-7 -30 -11 -57 -8 -60 2 -2 9 21 16 52 7 30 11 57 8 60
-2 2 -9 -21 -16 -52z"/>
<path d="M2090 2033 c11 -24 25 -43 30 -43 5 0 17 -22 27 -50 10 -27 23 -50
29 -50 6 0 16 -12 23 -26 6 -15 14 -24 17 -21 8 8 -49 106 -89 156 -18 21 -38
47 -45 57 -7 11 -3 0 8 -23z"/>
<path d="M1475 2023 c-3 -16 -12 -41 -20 -56 -21 -40 -19 -84 4 -96 17 -9 19
-6 20 32 1 23 2 50 4 59 4 25 19 37 16 13 -1 -11 3 -40 10 -65 11 -37 14 -41
23 -26 12 21 4 76 -19 129 -19 44 -31 47 -38 10z"/>
<path d="M1490 1865 c0 -8 5 -15 10 -15 6 0 10 7 10 15 0 8 -4 15 -10 15 -5 0
-10 -7 -10 -15z"/>
<path d="M1493 1832 l-53 -26 0 -83 c0 -46 4 -83 9 -83 6 0 18 -13 27 -30 17
-28 19 -28 36 -13 15 13 18 32 18 111 0 53 3 92 7 89 3 -4 5 -39 4 -78 -2 -51
1 -74 11 -80 10 -7 10 -9 1 -9 -7 0 -13 -4 -13 -10 0 -5 23 6 50 26 51 37 167
83 208 84 17 0 24 -7 29 -32 4 -18 6 -37 5 -42 -2 -4 -5 -89 -7 -187 -2 -99
-7 -184 -10 -189 -3 -6 -16 -10 -29 -10 -67 0 -226 -81 -226 -115 0 -12 5 -11
23 5 44 43 136 80 230 95 l38 6 -3 195 c-3 179 -2 194 15 194 16 0 17 -17 17
-215 l0 -215 -43 0 c-82 0 -257 -59 -257 -86 0 -8 -12 -20 -27 -27 -16 -6 -31
-15 -34 -20 -9 -12 -99 30 -99 46 0 28 -175 87 -257 87 l-43 0 0 214 c0 181 2
215 15 220 13 5 15 -21 15 -194 l0 -199 38 -6 c83 -14 99 -19 152 -45 30 -16
65 -38 78 -49 31 -30 28 -10 -4 22 -37 37 -119 76 -176 83 -27 4 -51 11 -55
17 -3 6 -7 71 -9 146 -2 75 -4 166 -6 203 -2 68 10 98 39 98 26 0 135 -41 175
-66 41 -26 68 -24 33 3 -58 45 -212 94 -248 80 -10 -4 -17 -17 -17 -32 0 -21
-5 -25 -31 -25 -23 0 -32 -5 -36 -20 -4 -15 -12 -20 -32 -18 l-26 3 -3 -261
-2 -261 137 -6 c146 -7 238 -24 303 -57 l38 -20 54 25 c70 32 208 55 329 55
l99 0 -2 263 -3 262 -26 -3 c-20 -2 -28 3 -32 18 -4 15 -13 20 -39 20 -30 0
-34 3 -33 28 0 22 -5 28 -28 30 -40 5 -153 -32 -209 -67 l-48 -31 0 105 c0 58
-3 104 -7 103 -5 0 -32 -12 -60 -26z m7 -129 c0 -87 -1 -95 -15 -77 -9 12 -14
44 -15 91 0 65 3 75 28 82 1 1 2 -43 2 -96z m-418 -295 l3 -213 70 -7 c77 -8
196 -36 235 -55 33 -17 27 -16 -65 7 -52 13 -111 20 -177 20 l-98 0 0 230 c0
196 2 230 15 230 12 0 15 -33 17 -212z m868 -17 l0 -228 -127 -6 c-71 -3 -139
-8 -153 -12 -18 -5 -21 -4 -10 3 22 14 108 32 186 40 l69 7 3 213 c2 179 5
212 17 212 13 0 15 -33 15 -229z m-325 -261 c-3 -5 -11 -10 -16 -10 -6 0 -7 5
-4 10 3 6 11 10 16 10 6 0 7 -4 4 -10z"/>
<path d="M1190 1506 l0 -213 58 -13 c72 -16 142 -51 192 -97 l40 -35 0 119 c0
112 1 119 20 120 19 2 20 -4 20 -119 l0 -120 40 35 c51 47 127 85 196 99 l54
11 0 212 0 213 -57 -15 c-83 -22 -143 -55 -191 -107 -38 -41 -42 -50 -42 -97
l0 -51 48 7 c26 3 71 14 99 22 42 13 50 19 41 30 -8 10 -8 20 0 38 12 26 8 29
-29 26 -27 -3 -41 23 -25 44 12 16 16 17 30 6 11 -9 16 -10 16 -2 0 15 11 13
34 -4 15 -12 17 -18 8 -27 -9 -9 -8 -14 3 -22 9 -7 19 -41 24 -86 l10 -75 -3
63 c-1 34 1 62 6 62 9 0 11 -104 2 -137 -4 -13 -12 -23 -20 -23 -11 0 -13 19
-13 84 2 83 -3 106 -22 106 -14 0 -11 -48 4 -53 19 -8 -9 -24 -82 -47 -67 -21
-151 -25 -216 -10 -28 6 -42 6 -47 -3 -11 -17 34 -28 118 -28 84 0 142 13 203
47 39 22 42 22 26 5 -32 -36 -122 -64 -210 -65 -44 -1 -92 2 -107 7 -22 6 -28
3 -33 -13 -10 -30 -34 -50 -61 -50 -19 0 -26 6 -31 30 -3 17 -10 33 -16 37 -5
3 -7 2 -4 -4 8 -14 -49 -67 -62 -58 -6 3 -9 11 -5 16 3 5 9 7 13 4 5 -2 16 4
26 15 10 12 13 20 7 20 -7 0 -12 5 -12 11 0 5 5 7 12 3 7 -5 8 -3 3 6 -11 18
-36 -16 -28 -38 5 -14 3 -15 -7 -5 -11 10 -11 17 0 37 17 33 41 41 57 20 12
-16 13 -15 13 8 0 36 17 78 31 78 8 0 10 -22 7 -70 -4 -72 0 -81 22 -55 7 8
16 12 21 9 5 -3 6 2 3 10 -3 8 -1 24 5 35 10 17 16 19 37 11 53 -20 64 -14 64
35 0 39 -6 52 -41 90 -44 48 -134 97 -207 113 l-42 10 0 -212z m132 151 c15
-6 24 -15 22 -19 -3 -4 4 -8 15 -8 11 0 25 -9 31 -20 6 -11 15 -20 21 -20 20
0 40 -30 46 -66 l6 -37 -38 6 c-29 5 -44 2 -59 -11 -18 -17 -19 -16 -13 15 5
26 2 35 -16 48 -21 15 -23 14 -43 -9 -12 -14 -23 -29 -25 -35 -2 -6 -15 -12
-29 -13 l-25 -3 -1 101 -1 101 41 -9 c23 -5 53 -14 68 -21z m468 -27 c0 -33
-4 -60 -10 -60 -5 0 -10 11 -10 25 0 26 -38 59 -62 53 -7 -2 -15 2 -16 7 -3 8
54 29 91 34 4 1 7 -26 7 -59z m-170 -30 c0 -11 14 -33 30 -48 17 -16 30 -32
30 -35 0 -12 -36 -25 -89 -32 l-54 -7 5 40 c4 26 16 52 34 70 35 36 44 38 44
12z m108 -200 c-5 -35 21 -66 47 -56 12 4 16 1 13 -16 -3 -20 -15 -26 -65 -31
-13 -1 -23 -5 -23 -8 0 -6 -50 -23 -58 -20 -1 1 -8 -3 -15 -9 -6 -6 -29 -21
-49 -35 l-38 -24 0 84 0 85 38 1 c30 0 33 2 17 9 -16 7 -14 9 15 10 19 0 51 9
70 19 49 26 53 25 48 -9z m-298 -21 c0 -6 7 -8 16 -5 13 5 15 -7 13 -84 -1
-50 -3 -90 -5 -90 -1 0 -9 6 -16 14 -20 20 -103 60 -167 81 l-53 17 21 21 c20
20 22 21 48 5 37 -21 74 -13 104 23 25 30 39 37 39 18z"/>
<path d="M1663 1596 c5 -14 60 -13 64 1 3 7 -10 11 -32 10 -19 -1 -34 -5 -32
-11z"/>
<path d="M1308 1490 c-4 -14 -7 -45 -7 -70 l1 -45 9 40 c6 22 9 54 7 70 -3 30
-3 30 -10 5z"/>
<path d="M1495 1460 c3 -5 8 -10 11 -10 2 0 4 5 4 10 0 6 -5 10 -11 10 -5 0
-7 -4 -4 -10z"/>
<path d="M1338 1384 c-34 -18 -35 -23 -4 -17 14 3 27 11 30 19 6 17 8 17 -26
-2z"/>
<path d="M858 2439 c-61 -35 35 -85 120 -63 29 8 24 23 -18 52 -35 23 -74 28
-102 11z m82 -29 c11 -7 6 -10 -22 -10 -20 0 -40 5 -43 10 -8 13 45 13 65 0z"/>
<path d="M2040 2428 c-42 -29 -47 -44 -18 -52 86 -23 183 29 119 64 -31 16
-65 12 -101 -12z m85 -18 c-3 -5 -23 -10 -43 -10 -28 0 -33 3 -22 10 20 13 73
13 65 0z"/>
<path d="M760 2350 l-25 -20 24 -20 c26 -22 77 -26 116 -8 31 14 32 23 1 43
-40 26 -88 28 -116 5z m85 -20 c4 -6 -8 -10 -29 -10 -20 0 -36 5 -36 10 0 6
13 10 29 10 17 0 33 -4 36 -10z"/>
<path d="M2141 2352 c-44 -22 -48 -35 -16 -50 39 -18 90 -14 116 8 l24 20 -25
20 c-31 24 -55 25 -99 2z m66 -26 c-21 -16 -49 -15 -55 2 -2 8 10 12 35 12 34
-1 36 -2 20 -14z"/>
<path d="M680 2250 c-29 -29 -25 -38 21 -50 34 -9 46 -8 77 7 45 23 50 36 17
51 -40 18 -92 15 -115 -8z m83 -15 c1 -5 -13 -11 -30 -13 -18 -2 -33 1 -33 7
0 19 58 25 63 6z"/>
<path d="M2202 2258 c-30 -15 -24 -29 20 -51 31 -15 43 -16 77 -7 46 12 50 21
21 50 -22 22 -80 26 -118 8z m92 -28 c7 -7 0 -10 -21 -10 -31 0 -48 11 -37 23
8 8 45 0 58 -13z"/>
<path d="M633 2160 c-30 -12 -50 -50 -32 -61 34 -21 136 6 147 39 8 25 -71 40
-115 22z m65 -25 c-10 -10 -68 -24 -68 -16 0 15 13 21 43 21 17 0 28 -2 25 -5z"/>
<path d="M2272 2159 c-13 -5 -22 -14 -20 -21 6 -18 70 -48 103 -48 42 0 54 10
44 38 -14 37 -76 52 -127 31z m93 -29 c4 -6 -6 -10 -24 -10 -16 0 -33 5 -36
10 -4 6 6 10 24 10 16 0 33 -4 36 -10z"/>
<path d="M604 2053 c-26 -5 -51 -31 -56 -58 -7 -44 94 -26 133 23 15 20 17 27
7 34 -13 8 -47 9 -84 1z m42 -32 c-3 -5 -19 -14 -36 -19 -36 -13 -53 4 -18 17
30 13 61 13 54 2z"/>
<path d="M2312 2052 c-10 -7 -8 -14 7 -34 25 -31 70 -51 107 -46 23 2 28 7 26
23 -2 11 -11 28 -20 37 -19 20 -100 33 -120 20z m97 -31 c28 -18 1 -32 -30
-16 -16 9 -29 18 -29 20 0 8 44 5 59 -4z"/>
<path d="M382 1965 c5 -62 36 -105 75 -105 18 0 23 5 23 25 0 39 -25 89 -55
113 -42 33 -48 28 -43 -33z m61 -42 c3 -15 3 -30 0 -33 -7 -8 -33 32 -27 42 3
5 0 16 -8 25 -12 15 -11 15 8 5 12 -6 24 -24 27 -39z"/>
<path d="M2575 1998 c-30 -24 -55 -74 -55 -113 0 -20 5 -25 23 -25 39 0 70 43
75 105 5 61 -1 66 -43 33z m15 -45 c-1 -10 -7 -29 -15 -43 -12 -23 -14 -23
-21 -6 -4 11 -2 21 5 26 7 4 12 10 12 14 -3 18 0 26 9 26 6 0 10 -8 10 -17z"/>
<path d="M547 1920 c-51 -41 -43 -99 11 -79 29 11 78 54 93 82 9 15 5 17 -34
17 -29 0 -53 -7 -70 -20z m38 -30 c-17 -19 -45 -27 -45 -14 0 11 34 33 49 34
11 0 10 -5 -4 -20z"/>
<path d="M2349 1923 c15 -28 64 -71 93 -82 20 -7 29 -7 38 4 30 37 -29 95 -97
95 -39 0 -43 -2 -34 -17z m105 -39 c3 -8 1 -14 -5 -14 -14 0 -59 31 -59 41 0
13 58 -11 64 -27z"/>
<path d="M350 1840 c0 -67 39 -120 89 -120 52 0 7 101 -60 136 -29 14 -29 14
-29 -16z m68 -52 c24 -37 18 -59 -8 -32 -21 23 -35 64 -22 64 6 0 19 -14 30
-32z"/>
<path d="M2614 1851 c-43 -26 -74 -69 -74 -102 0 -24 4 -29 25 -29 48 0 96 77
83 134 -3 14 -6 14 -34 -3z m6 -34 c0 -17 -35 -67 -46 -67 -20 0 -17 20 8 47
19 20 38 30 38 20z"/>
<path d="M605 1825 c-5 -2 -22 -6 -37 -9 -35 -8 -68 -43 -68 -73 0 -18 5 -23
28 -23 35 0 68 23 87 60 23 44 20 55 -10 45z m-32 -57 c-13 -12 -25 -19 -29
-15 -10 10 16 37 34 37 13 0 12 -4 -5 -22z"/>
<path d="M2370 1819 c0 -20 30 -68 52 -83 12 -9 35 -16 50 -16 22 0 28 4 28
23 -1 40 -35 68 -97 80 -20 4 -33 2 -33 -4z m88 -50 c16 -26 -8 -27 -31 -1
-15 16 -15 18 1 19 10 1 24 -7 30 -18z"/>
<path d="M346 1668 c21 -59 50 -88 91 -88 37 0 39 6 19 55 -14 33 -75 75 -110
75 -13 0 -13 -5 0 -42z m84 -33 c22 -26 -2 -39 -28 -15 -28 26 -30 55 -4 41
10 -5 25 -17 32 -26z"/>
<path d="M2598 1689 c-51 -26 -91 -107 -55 -110 53 -5 89 23 111 87 14 41 13
44 -2 44 -9 -1 -34 -10 -54 -21z m26 -31 c-12 -22 -47 -58 -56 -58 -15 0 -8
23 14 47 23 24 54 32 42 11z"/>
<path d="M569 1565 c-37 -24 -49 -43 -49 -74 0 -57 68 -37 94 29 30 75 17 88
-45 45z m16 -45 c-9 -16 -20 -30 -25 -30 -14 0 -12 12 6 38 23 33 37 27 19 -8z"/>
<path d="M2370 1575 c0 -60 70 -141 99 -112 27 27 8 75 -43 106 -39 25 -56 27
-56 6z m80 -72 c0 -7 -4 -13 -8 -13 -15 0 -32 24 -32 44 0 18 1 19 20 1 11
-10 20 -24 20 -32z"/>
<path d="M354 1534 c10 -39 36 -73 68 -90 34 -17 68 -10 68 14 0 40 -48 80
-114 96 -27 7 -28 6 -22 -20z m84 -33 c22 -19 30 -41 13 -41 -13 0 -61 40 -61
51 0 15 23 10 48 -10z"/>
<path d="M2598 1548 c-65 -17 -114 -98 -68 -113 40 -13 100 38 116 99 7 28 6
29 -48 14z m2 -48 c-9 -18 -40 -40 -54 -40 -17 0 -2 27 22 42 37 22 45 22 32
-2z"/>
<path d="M600 1443 c-44 -45 -55 -98 -23 -110 23 -9 69 45 77 92 11 59 -7 65
-54 18z m19 -46 c-10 -23 -39 -45 -39 -31 0 11 23 49 34 56 16 11 18 3 5 -25z"/>
<path d="M2344 1466 c-9 -24 14 -91 40 -115 31 -30 56 -22 56 18 0 48 -83 132
-96 97z m53 -48 c18 -24 23 -48 9 -48 -10 0 -36 39 -36 55 0 10 18 5 27 -7z"/>
<path d="M2300 1326 c0 -57 13 -92 41 -106 56 -31 53 86 -5 132 -31 26 -36 22
-36 -26z m45 -28 c14 -41 14 -59 0 -48 -14 12 -26 70 -14 70 3 0 10 -10 14
-22z"/>
<path d="M721 1246 c-16 -17 -25 -41 -29 -75 -4 -42 -1 -51 16 -60 17 -9 23
-6 38 16 18 29 22 100 7 127 -8 14 -12 13 -32 -8z m15 -58 c-3 -13 -6 -30 -6
-38 0 -12 -2 -12 -9 -2 -10 17 -2 62 11 62 6 0 8 -10 4 -22z"/>
<path d="M2245 1249 c-13 -40 -9 -94 10 -122 14 -22 20 -25 37 -16 30 16 21
101 -15 136 l-25 25 -7 -23z m40 -97 c-10 -10 -25 21 -24 48 1 23 2 22 15 -9
8 -18 12 -36 9 -39z"/>
<path d="M2476 1260 c-33 -10 -76 -48 -76 -66 0 -7 8 -18 19 -23 29 -16 86 5
122 46 l32 37 -24 7 c-31 9 -39 9 -73 -1z m6 -54 c-23 -11 -45 -16 -49 -12
-14 13 62 48 81 38 5 -3 -9 -15 -32 -26z"/>
<path d="M791 1144 c-27 -35 -28 -95 -2 -118 39 -35 64 13 49 92 -6 29 -14 52
-19 52 -4 0 -17 -12 -28 -26z m23 -74 c-1 -8 -3 -19 -3 -25 -1 -5 -5 -4 -9 3
-5 7 -6 27 -4 45 4 27 6 29 12 12 4 -11 6 -27 4 -35z"/>
<path d="M2162 1118 c-15 -79 10 -127 49 -92 26 23 25 83 -2 118 -11 14 -24
26 -28 26 -5 0 -13 -23 -19 -52z m35 -60 c-3 -20 -4 -21 -11 -5 -5 9 -5 29 0
45 7 25 8 26 11 5 3 -13 3 -33 0 -45z"/>
<path d="M515 1120 c-15 -25 53 -70 105 -70 17 0 40 5 52 11 20 11 19 11 -8
40 -24 25 -35 29 -85 29 -32 0 -61 -5 -64 -10z m125 -26 c13 -5 12 -7 -2 -15
-17 -9 -88 12 -88 26 0 6 61 -2 90 -11z"/>
<path d="M2336 1101 c-27 -29 -28 -29 -8 -40 34 -18 87 -13 123 12 53 35 45
51 -26 55 -56 3 -63 1 -89 -27z m114 4 c0 -8 -42 -27 -71 -32 -36 -5 -38 12
-3 24 30 10 74 15 74 8z"/>
<path d="M2084 1065 c-12 -18 -18 -47 -19 -79 0 -48 2 -51 25 -51 49 0 65 87
26 140 -13 18 -14 17 -32 -10z m23 -67 c-1 -17 -8 -33 -16 -36 -10 -3 -12 0
-8 12 4 10 7 26 7 37 0 10 4 19 9 19 5 0 9 -14 8 -32z"/>
<path d="M980 1001 c-17 -33 -12 -99 10 -121 11 -11 27 -20 35 -20 23 0 20 87
-5 128 -23 37 -26 38 -40 13z m34 -101 c-8 -8 -22 21 -19 39 2 9 4 21 5 26 1
6 6 -6 10 -25 5 -19 6 -37 4 -40z"/>
<path d="M1981 990 c-26 -43 -30 -130 -6 -130 8 0 24 9 35 20 24 24 27 96 6
125 -13 18 -15 17 -35 -15z m25 -51 c-5 -41 -25 -61 -21 -21 2 28 12 52 20 52
3 0 3 -14 1 -31z"/>
<path d="M283 950 l-241 -5 43 -106 44 -106 -44 -108 c-25 -59 -45 -109 -45
-111 0 -6 133 -4 157 2 40 11 14 24 -47 24 -32 0 -61 4 -64 8 -3 5 11 48 31
96 l36 87 -36 91 c-20 50 -35 94 -32 97 6 10 355 14 355 4 0 -4 -20 -20 -44
-36 -33 -20 -46 -37 -54 -65 -5 -20 -40 -113 -76 -206 -37 -93 -63 -172 -58
-175 220 -151 395 -231 632 -291 252 -65 446 -85 735 -77 372 11 674 78 952
212 86 41 237 130 271 160 2 2 -4 17 -12 34 -9 16 -16 32 -16 33 0 2 43 2 95
0 52 -3 95 -2 95 1 0 2 -20 53 -45 112 l-44 108 44 106 43 106 -241 5 c-225 5
-283 3 -247 -8 8 -2 50 -27 93 -55 l78 -50 -53 -38 c-102 -72 -267 -147 -426
-193 -488 -139 -1097 -108 -1542 80 -108 45 -265 138 -256 152 2 4 40 30 83
56 90 57 88 55 82 59 -2 1 -113 0 -246 -3z m2631 -37 c4 -9 2 -21 -2 -27 -5
-6 -21 -43 -36 -81 l-27 -70 35 -93 c20 -52 36 -96 36 -98 0 -3 -26 -4 -58 -3
-31 1 -66 -1 -78 -5 -18 -5 -26 9 -77 137 -31 78 -57 150 -57 159 0 16 -63 78
-80 78 -6 0 -10 5 -10 10 0 7 60 10 174 10 147 -1 175 -4 180 -17z m-2535
-127 c15 -13 106 -64 191 -107 42 -21 129 -59 150 -65 8 -2 47 -13 85 -23 39
-11 70 -20 70 -21 0 -1 8 -3 19 -5 10 -2 39 -8 65 -14 25 -6 57 -13 71 -15 14
-3 25 -5 25 -6 0 -1 14 -3 30 -5 17 -2 75 -10 130 -18 103 -14 482 -16 560 -3
22 4 58 9 80 12 34 4 90 13 180 28 11 2 27 6 35 9 15 5 65 17 75 18 3 0 23 6
45 14 22 8 44 15 48 16 4 1 17 5 30 10 13 5 28 9 34 9 18 0 204 97 269 140 60
40 77 42 83 9 1 -8 10 -28 19 -46 10 -18 16 -36 15 -40 -1 -4 10 -32 25 -62
24 -49 55 -167 46 -175 -9 -8 -210 -126 -214 -126 -3 0 -37 -15 -77 -34 -71
-33 -175 -73 -211 -81 -9 -2 -45 -11 -80 -21 -111 -29 -222 -52 -292 -60 -27
-3 -53 -8 -56 -10 -11 -6 -181 -16 -329 -17 -144 -2 -335 12 -440 32 -30 6
-77 15 -105 20 -147 28 -367 102 -490 167 -153 80 -154 80 -198 116 -25 21
-27 27 -21 66 7 43 24 58 24 21 0 -20 53 -79 71 -79 6 0 23 -9 38 -21 24 -18
31 -19 49 -8 11 7 23 21 25 31 3 10 12 18 20 18 11 0 13 -10 10 -43 -5 -41 -3
-46 33 -75 28 -23 44 -30 61 -25 16 3 31 -1 46 -14 37 -34 58 -42 87 -31 51
17 65 85 25 116 -31 25 -33 46 -3 39 46 -12 78 61 45 104 -19 25 -57 41 -81
35 -17 -4 -30 2 -51 24 -19 19 -36 28 -54 26 -17 -1 -39 9 -65 31 -22 18 -45
33 -52 33 -6 0 -26 13 -43 29 -48 45 -79 29 -122 -64 -25 -53 -35 -53 -14 0 4
11 19 50 33 88 14 37 27 67 30 67 3 0 13 -6 21 -14z m33 -93 c17 -16 25 -73
11 -86 -13 -13 -33 15 -27 39 12 49 -13 22 -39 -41 -28 -68 -33 -95 -18 -95
11 0 21 25 21 56 0 27 3 28 30 14 17 -9 17 -11 -2 -64 -22 -60 -38 -64 -79
-20 l-22 23 27 74 c42 115 61 134 98 100z m119 -84 c8 -15 2 -46 -16 -91 -9
-22 -34 -31 -51 -17 -11 9 -16 5 -24 -17 -21 -59 -25 -64 -39 -55 -11 7 -6 29
25 119 l39 110 28 -16 c16 -10 33 -24 38 -33z m99 -39 c15 -15 19 -27 14 -48
-9 -34 -8 -34 -27 -26 -12 4 -15 13 -11 31 5 19 3 24 -6 21 -21 -7 -65 -147
-51 -161 15 -15 22 -5 24 39 2 23 8 39 15 38 40 -3 39 -2 23 -65 -16 -59 -17
-60 -45 -55 -42 9 -56 24 -56 60 0 34 36 152 53 174 14 18 44 15 67 -8z m-355
-9 c-3 -6 -11 -11 -17 -11 -6 0 -6 6 2 15 14 17 26 13 15 -4z m480 -41 c23
-26 12 -80 -15 -73 -12 3 -18 13 -17 28 1 13 -2 24 -8 25 -9 1 -44 -117 -45
-152 0 -26 19 -22 26 6 4 18 11 22 26 18 15 -4 18 -10 13 -31 -13 -53 -41 -64
-84 -35 -21 15 -23 22 -18 63 8 63 35 147 52 165 17 17 47 11 70 -14z"/>
<path d="M2513 685 c-7 -8 -13 -19 -13 -24 0 -7 -9 -7 -26 -1 -15 6 -23 6 -19
1 3 -5 -4 -12 -15 -16 -41 -13 -50 -43 -36 -115 15 -76 36 -121 82 -170 28
-29 37 -33 51 -24 10 6 19 22 21 36 4 32 45 56 66 39 20 -16 56 2 57 29 2 32
3 34 26 57 14 14 20 29 16 43 -7 27 -40 45 -57 31 -10 -8 -16 -4 -27 17 -18
35 -89 112 -103 112 -6 -1 -17 -7 -23 -15z m103 -107 c23 -45 45 -141 34 -152
-6 -6 -11 -4 -13 5 -23 84 -47 140 -78 184 -21 30 -34 56 -31 60 8 8 68 -58
88 -97z m-97 -16 c42 -93 46 -99 64 -84 15 12 27 6 27 -13 0 -9 -49 -45 -63
-45 -2 0 -22 39 -43 88 -21 48 -42 93 -48 100 -9 12 6 32 24 32 3 -1 20 -35
39 -78z m-79 40 c0 -37 30 -118 65 -176 39 -65 39 -66 24 -66 -17 0 -48 40
-75 97 -28 59 -44 163 -25 163 6 0 11 -8 11 -18z m126 -48 c8 -20 13 -39 10
-42 -5 -4 -36 58 -36 73 0 16 13 0 26 -31z m134 -38 c-15 -15 -34 9 -26 31 7
17 8 17 22 -1 9 -13 11 -23 4 -30z"/>
<path d="M2240 555 c-14 -8 -35 -14 -47 -15 -13 0 -28 -9 -35 -20 -10 -16 -20
-18 -54 -13 -36 5 -46 2 -68 -20 -21 -21 -24 -30 -16 -49 9 -21 37 -126 46
-172 9 -50 56 -60 114 -24 21 13 48 21 68 19 18 -1 32 2 32 8 0 6 13 11 29 11
17 0 31 6 35 16 3 9 12 14 20 11 21 -8 56 21 56 46 0 12 -11 42 -25 66 -14 23
-25 52 -25 63 0 27 -26 74 -45 82 -26 10 -58 6 -85 -9z m74 -11 c23 -9 41 -71
26 -89 -10 -12 -9 -15 4 -15 24 0 63 -89 45 -101 -22 -14 -27 -11 -39 29 -14
42 -26 59 -36 49 -4 -4 1 -26 10 -50 20 -53 20 -54 -2 -59 -16 -5 -24 11 -52
96 -18 55 -35 106 -37 111 -2 6 9 16 24 22 36 14 38 14 57 7z m-73 -138 c36
-112 36 -114 16 -120 -12 -3 -22 -4 -22 -3 -1 1 -16 51 -34 111 -27 88 -31
110 -20 117 8 5 16 9 19 9 3 0 21 -52 41 -114z m-89 34 c26 -54 42 -123 34
-153 -4 -19 -16 -29 -43 -36 -21 -6 -40 -7 -44 -3 -10 12 -58 215 -52 225 2 4
24 7 46 5 37 -3 44 -7 59 -38z"/>
<path d="M2284 488 c3 -13 6 -29 6 -35 0 -7 5 -13 10 -13 11 0 13 30 4 54 -9
25 -27 19 -20 -6z"/>
<path d="M2094 424 c4 -16 15 -56 25 -89 14 -45 20 -56 26 -42 10 23 -26 149
-44 155 -10 3 -12 -3 -7 -24z"/>
<path d="M833 508 c-4 -7 -8 -47 -9 -88 -1 -67 -6 -111 -19 -147 -2 -7 7 -25
20 -40 21 -25 26 -27 45 -15 19 12 25 11 46 -9 15 -14 30 -20 44 -16 11 3 33
-1 48 -8 20 -11 28 -12 34 -2 6 9 8 9 8 0 0 -8 13 -13 33 -13 17 0 38 -4 46
-9 8 -5 24 -6 36 -1 13 5 26 5 32 -1 6 -6 34 -12 64 -14 30 -2 64 -6 76 -9 13
-3 25 -1 28 5 4 6 13 5 24 0 12 -7 26 -5 44 4 23 12 29 12 42 -2 12 -11 27
-13 58 -9 23 4 56 6 74 6 17 0 38 7 47 15 9 9 17 11 21 5 7 -11 108 -14 118
-3 4 3 32 7 63 9 35 1 62 8 74 19 15 14 25 15 47 8 22 -8 32 -6 45 7 10 9 18
20 18 24 0 15 -72 201 -86 224 -19 29 -71 27 -88 -3 -6 -11 -12 -22 -14 -24
-1 -3 -8 4 -15 13 -17 23 -86 24 -120 1 -17 -11 -27 -13 -32 -6 -9 16 -61 13
-75 -4 -14 -17 -40 -20 -40 -5 0 18 -73 24 -101 7 -23 -13 -30 -13 -47 -2 -21
15 -97 23 -108 12 -4 -4 -12 -3 -18 2 -19 15 -86 23 -86 10 0 -9 -3 -9 -14 0
-8 7 -32 11 -54 10 -22 -2 -47 3 -55 9 -8 7 -28 12 -43 11 -16 -1 -41 3 -55 9
-15 6 -29 9 -31 6 -3 -2 -21 3 -41 11 -44 18 -73 19 -84 3z m71 -24 c26 -4 36
-11 36 -25 0 -11 -7 -19 -15 -19 -8 0 -15 -1 -16 -2 0 -2 -8 -46 -17 -98 -16
-84 -20 -95 -40 -98 -27 -4 -27 4 -3 121 16 74 16 89 5 94 -8 3 -14 14 -14 25
0 13 5 18 14 15 8 -3 31 -9 50 -13z m90 -58 c-1 -22 -7 -78 -14 -126 -12 -84
-13 -87 -37 -82 -13 2 -22 10 -20 16 3 7 13 63 22 125 15 93 20 111 34 109 12
-3 16 -14 15 -42z m93 -75 c-7 -109 4 -104 24 12 10 57 17 77 28 77 40 -1 43
-12 35 -139 -6 -112 -8 -121 -27 -121 -19 0 -19 4 -13 77 4 42 9 90 12 107 4
22 3 27 -4 16 -5 -8 -13 -35 -17 -60 -15 -97 -27 -130 -46 -130 -17 0 -19 10
-21 113 l-1 112 -10 -107 c-9 -95 -12 -108 -28 -108 -22 0 -22 -4 -4 130 8 58
15 110 15 116 0 6 13 9 31 6 l32 -5 -6 -96z m886 -9 c47 -135 46 -126 21 -130
-16 -2 -23 4 -28 23 -9 36 -42 30 -39 -7 1 -18 -4 -28 -16 -31 -16 -4 -19 5
-25 62 -10 107 -7 179 7 184 35 15 43 5 80 -101z m-675 73 c1 -1 0 -10 -4 -19
-4 -11 -13 -15 -25 -11 -16 5 -19 1 -19 -29 0 -29 4 -36 20 -36 14 0 20 -7 20
-21 0 -15 -5 -19 -21 -17 -18 3 -22 -3 -25 -34 -3 -35 -1 -38 21 -38 19 0 25
-5 25 -21 0 -18 -5 -20 -47 -17 -41 3 -48 6 -46 23 1 11 5 69 8 128 l7 108 42
-6 c22 -4 42 -8 44 -10z m524 -2 c24 -21 24 -81 1 -99 -17 -12 -17 -13 -1 -14
20 0 33 -22 42 -71 5 -31 3 -37 -13 -42 -26 -6 -31 0 -31 35 0 33 -16 68 -31
68 -6 0 -8 -8 -6 -17 3 -10 8 -35 12 -55 5 -35 4 -38 -18 -38 -22 0 -24 5 -38
121 -8 66 -12 122 -10 125 11 11 76 2 93 -13z m-414 -9 c28 -20 31 -88 5 -103
-17 -9 -17 -11 -1 -23 11 -8 18 -31 20 -66 3 -48 1 -52 -19 -52 -19 0 -22 6
-25 52 -4 74 -28 77 -28 4 0 -49 -2 -56 -20 -56 -19 0 -20 7 -20 130 l0 130
33 0 c18 0 43 -7 55 -16z m142 -4 c27 -27 27 -70 1 -70 -12 0 -21 8 -23 22 -2
12 -9 23 -16 26 -10 3 -13 -13 -11 -74 2 -80 12 -119 30 -109 12 8 12 52 -1
60 -5 3 -10 15 -10 26 0 15 7 19 30 19 l31 0 -3 -67 -3 -68 -42 -3 c-61 -4
-73 18 -73 135 0 70 4 95 16 107 21 22 50 20 74 -4z m152 -88 c15 -59 30 -115
33 -124 6 -14 2 -18 -18 -18 -19 0 -26 6 -29 23 -2 14 -11 23 -25 25 -20 3
-23 -1 -23 -27 0 -25 -4 -31 -21 -31 -19 0 -20 4 -15 48 3 26 8 84 12 130 6
80 7 82 33 82 25 0 27 -5 53 -108z m-414 -77 c-3 -3 -9 2 -12 12 -6 14 -5 15
5 6 7 -7 10 -15 7 -18z"/>
<path d="M1914 369 c3 -17 6 -42 6 -55 0 -15 6 -24 16 -24 10 0 14 6 11 14 -3
8 -11 33 -17 55 -13 48 -25 55 -16 10z"/>
<path d="M1770 372 c0 -28 10 -52 22 -52 14 0 5 63 -9 68 -8 2 -13 -5 -13 -16z"/>
<path d="M1360 345 c0 -25 4 -35 13 -32 6 2 12 16 12 32 0 16 -6 30 -12 33 -9
2 -13 -8 -13 -33z"/>
<path d="M1649 317 c-3 -48 -1 -57 13 -57 14 0 15 5 8 33 -5 17 -10 43 -12 57
-3 14 -6 -1 -9 -33z"/>
<path d="M471 574 c-13 -36 -10 -51 7 -40 14 9 25 57 15 67 -5 5 -15 -7 -22
-27z"/>
<path d="M520 840 c0 -51 3 -91 6 -87 8 8 9 166 0 174 -3 3 -6 -36 -6 -87z"/>
<path d="M2462 848 c-1 -88 10 -128 18 -63 6 52 0 145 -9 145 -5 0 -9 -37 -9
-82z"/>
<path d="M738 902 c-35 -21 -35 -28 2 -47 43 -22 102 -19 130 7 l23 21 -23 19
c-28 23 -96 23 -132 0z m112 -23 c0 -5 -20 -9 -45 -9 -44 0 -63 15 -27 22 26
5 72 -3 72 -13z"/>
<path d="M2130 902 l-23 -19 23 -21 c29 -27 87 -29 133 -6 l31 17 -28 23 c-34
30 -103 33 -136 6z m110 -18 c0 -14 -54 -23 -73 -12 l-22 12 25 6 c24 6 70 2
70 -6z"/>
<path d="M1045 773 c-21 -5 -75 -51 -75 -64 0 -15 72 -21 111 -10 40 12 65 42
55 67 -5 14 -48 17 -91 7z m55 -32 c0 -10 -42 -20 -74 -19 -18 1 -18 2 0 15
20 15 74 18 74 4z"/>
<path d="M1864 766 c-16 -43 60 -85 130 -72 43 8 44 15 11 48 -37 37 -130 52
-141 24z m56 -21 c13 8 60 -5 60 -17 0 -5 -16 -7 -36 -3 -45 7 -56 13 -47 28
5 8 8 8 11 -1 2 -7 8 -10 12 -7z"/>
</g>
</svg>
